<?xml version="1.0" standalone="no"?>
<!DOCTYPE svg PUBLIC "-//W3C//DTD SVG 20010904//EN"
 "http://www.w3.org/TR/2001/REC-SVG-20010904/DTD/svg10.dtd">
<svg version="1.0" xmlns="http://www.w3.org/2000/svg"
 width="296.000000pt" height="296.000000pt" viewBox="0 0 296.000000 296.000000"
 preserveAspectRatio="xMidYMid meet">
<metadata>
Created by potrace 1.14, written by Peter Selinger 2001-2017
</metadata>
<g transform="translate(0.000000,296.000000) scale(0.100000,-0.100000)"
fill="#000000" stroke="none">
<path d="M2545 2754 c-22 -13 -58 -30 -80 -38 -22 -8 -85 -31 -140 -51 -55
-20 -107 -39 -115 -42 -8 -3 -19 -5 -24 -4 -4 1 -13 -3 -20 -8 -6 -5 -24 -11
-41 -14 -16 -3 -59 -12 -95 -22 -36 -9 -76 -18 -90 -20 -14 -2 -25 -4 -25 -5
0 -2 -5 -3 -110 -29 -44 -11 -104 -26 -133 -34 -29 -9 -55 -16 -57 -16 -3 -1
-10 -3 -17 -6 -16 -5 -166 -45 -193 -51 -42 -10 -50 -13 -50 -14 0 -1 -7 -3
-15 -5 -49 -12 -354 -94 -389 -104 -18 -6 -36 -10 -40 -9 -3 1 -13 -2 -21 -5
-8 -3 -64 -18 -125 -33 -60 -14 -115 -30 -121 -35 -6 -5 -13 -7 -15 -4 -3 2
-43 -5 -90 -16 -46 -12 -91 -22 -99 -24 -26 -4 -73 -17 -120 -32 -55 -18 -82
-23 -140 -28 -25 -2 -52 -4 -60 -4 -11 -1 -9 -7 8 -20 12 -11 22 -22 22 -26 0
-4 11 -18 24 -30 14 -13 22 -26 19 -29 -4 -3 -1 -6 5 -6 7 0 12 -6 12 -14 0
-8 3 -16 8 -18 13 -5 112 -145 112 -157 0 -7 4 -9 10 -6 6 3 10 2 10 -4 0 -6
51 -88 113 -183 177 -270 287 -466 411 -738 38 -82 184 -388 211 -440 7 -14
22 -54 34 -90 24 -69 40 -101 42 -85 1 6 2 31 4 57 4 75 16 221 21 251 2 15 6
37 8 50 2 12 7 47 10 77 4 30 9 62 11 70 3 8 7 32 9 54 3 21 8 46 10 55 3 9 8
30 11 46 13 76 32 120 51 119 32 -3 119 -16 124 -19 3 -2 29 -6 59 -10 30 -4
63 -9 75 -11 12 -3 41 -9 66 -14 25 -5 55 -12 68 -15 12 -3 30 -7 40 -9 9 -2
37 -9 62 -16 25 -7 52 -14 60 -15 8 -2 15 -4 15 -5 0 -2 18 -6 65 -15 80 -15
148 -66 338 -253 103 -101 209 -202 236 -225 27 -23 54 -47 60 -52 65 -59 227
-171 212 -147 -4 7 -21 19 -38 28 -32 17 -57 38 -152 126 -34 32 -64 58 -68
58 -5 0 -8 5 -8 11 0 6 -12 23 -27 38 -24 23 -50 53 -158 175 -6 6 -30 36 -55
66 -25 30 -49 60 -55 66 -15 16 -50 62 -107 139 -51 70 -198 359 -198 389 0 9
-4 16 -9 16 -5 0 -11 12 -14 28 -3 15 -29 92 -57 172 -28 80 -52 150 -53 155
-9 31 -32 57 -67 75 -22 11 -40 24 -40 28 0 4 14 13 30 20 40 18 108 87 195
197 17 21 37 46 45 55 8 9 33 38 54 65 22 28 44 55 50 60 6 6 31 35 54 65 91
116 440 480 459 480 5 0 14 9 21 20 7 11 11 20 10 19 -2 0 -21 -12 -43 -25z"/>
<path d="M2790 220 c0 -5 5 -10 11 -10 5 0 7 5 4 10 -3 6 -8 10 -11 10 -2 0
-4 -4 -4 -10z"/>
<path d="M2827 199 c7 -7 15 -10 18 -7 3 3 -2 9 -12 12 -14 6 -15 5 -6 -5z"/>
<path d="M2870 180 c0 -5 5 -10 11 -10 5 0 7 5 4 10 -3 6 -8 10 -11 10 -2 0
-4 -4 -4 -10z"/>
</g>
</svg>
