<?xml version="1.0" standalone="no"?>
<!DOCTYPE svg PUBLIC "-//W3C//DTD SVG 20010904//EN"
 "http://www.w3.org/TR/2001/REC-SVG-20010904/DTD/svg10.dtd">
<svg version="1.0" xmlns="http://www.w3.org/2000/svg"
 width="897.000000pt" height="897.000000pt" viewBox="0 0 897.000000 897.000000"
 preserveAspectRatio="xMidYMid meet">
<metadata>
Created by potrace 1.14, written by Peter Selinger 2001-2017
</metadata>
<g transform="translate(0.000000,897.000000) scale(0.100000,-0.100000)"
fill="#000000" stroke="none">
<path d="M0 6733 c0 -1230 2 -2234 5 -2231 3 2 10 31 16 64 5 32 15 74 22 92
27 78 38 15 36 -204 -1 -109 -6 -172 -13 -176 -8 -5 -8 -8 0 -8 6 0 9 -12 6
-29 -2 -16 2 -47 9 -68 7 -21 15 -45 17 -53 3 -8 6 -49 7 -90 1 -41 7 -101 15
-133 13 -55 14 -57 26 -35 7 13 16 42 20 66 7 48 17 52 52 20 l24 -23 -6 25
c-12 57 -17 120 -9 120 16 -1 43 -28 43 -43 0 -8 10 -46 22 -83 12 -38 23 -80
24 -94 2 -23 73 -312 79 -318 1 -1 1 37 0 84 -1 65 2 87 13 91 8 4 11 14 8 27
-8 33 -43 373 -45 446 -3 75 -7 86 -28 68 -14 -11 -15 -10 -8 12 4 14 14 29
21 33 8 4 14 19 14 32 0 14 5 25 11 25 5 0 7 5 4 10 -4 6 -11 8 -16 5 -5 -4
-9 9 -8 27 0 28 2 30 10 13 8 -17 9 -17 4 5 -3 14 -9 49 -12 79 -5 48 -4 54
10 48 13 -5 17 -1 17 18 0 14 3 24 8 23 4 -1 17 3 29 10 16 9 24 9 29 1 4 -7
13 0 25 17 26 40 45 271 25 319 -6 16 -6 17 3 5 14 -19 14 -5 1 21 -7 13 -8
25 -1 37 9 15 10 15 11 1 0 -9 7 -22 15 -29 8 -7 15 -25 15 -41 0 -15 7 -32
16 -37 15 -8 15 -22 5 -133 -31 -335 -46 -550 -42 -604 5 -63 22 43 55 330 39
344 45 389 51 383 2 -1 6 -48 9 -103 16 -261 29 -401 38 -412 6 -8 7 -13 1
-13 -13 0 -4 -111 10 -128 8 -10 7 -16 -2 -21 -10 -7 -10 -12 0 -30 21 -32 26
-26 23 28 -1 27 -5 134 -9 237 -3 104 -10 240 -13 302 -4 63 -4 116 0 119 5 2
8 0 8 -5 0 -5 7 -9 15 -9 8 0 15 6 15 13 0 7 11 30 26 51 14 22 23 46 20 58
-2 11 -8 46 -11 78 -4 31 -11 57 -15 57 -4 0 -15 -18 -25 -40 -10 -22 -20 -38
-23 -36 -2 3 3 19 12 36 14 29 14 31 -2 28 -9 -2 -18 -9 -18 -16 -1 -6 -3 -24
-4 -39 l-2 -28 -8 30 c-10 38 -11 176 -1 152 4 -10 9 -19 11 -20 7 -3 73 44
82 58 9 12 11 3 8 -43 -1 -18 4 -40 11 -48 7 -9 10 -31 6 -62 -6 -45 -6 -46 7
-17 l13 30 18 -57 c16 -52 21 -58 45 -58 46 0 61 27 54 97 -4 37 -2 67 4 79
11 18 11 18 13 -1 0 -15 4 -13 14 12 10 22 23 33 45 38 39 9 42 6 34 -34 -4
-20 -10 -28 -14 -20 -5 8 -10 5 -15 -10 -16 -52 31 -32 55 23 10 23 19 33 19
24 1 -10 5 -18 10 -18 5 0 7 -8 4 -19 -7 -27 14 -35 29 -11 7 11 16 20 21 20
9 0 2 -85 -9 -115 -6 -17 -4 -16 13 4 24 29 39 22 47 -23 4 -19 12 -36 18 -38
8 -3 7 -10 -1 -27 -9 -17 -10 -26 -1 -36 7 -8 9 -20 5 -27 -4 -7 1 -4 10 7 10
11 31 49 47 84 25 55 32 62 40 47 13 -23 16 -40 18 -96 2 -38 3 -41 10 -20 8
24 8 23 9 -8 2 -56 21 -25 22 36 1 31 3 48 6 37 7 -30 19 -38 42 -30 12 4 21
15 21 27 0 13 5 18 14 15 10 -4 15 11 20 66 11 105 23 153 52 199 34 53 44 38
44 -67 0 -109 9 -158 27 -151 8 3 24 -1 37 -9 43 -28 56 -11 57 74 1 42 4 101
8 131 l7 55 16 -35 c13 -28 37 -193 38 -253 1 -31 20 22 21 58 1 22 4 54 8 70
l7 30 15 -30 c8 -17 32 -84 54 -150 l38 -119 13 37 c7 21 20 44 28 52 13 14
19 11 49 -19 37 -36 36 -35 66 -236 l9 -65 -4 85 c-3 71 -2 79 7 51 16 -52 31
-19 23 52 -7 70 10 77 24 10 l10 -48 1 40 c2 37 4 35 22 -35 18 -66 59 -153
59 -125 0 6 -9 61 -20 124 -11 62 -19 127 -19 145 l2 31 7 -35 c5 -25 8 -10 9
58 0 50 5 92 9 92 5 0 8 -10 8 -22 -1 -13 4 -22 11 -21 17 4 37 -40 52 -112
12 -55 46 -145 55 -145 7 0 -6 40 -15 46 -5 3 -9 10 -9 16 0 6 3 9 6 5 8 -7
34 17 34 32 0 6 10 10 23 8 17 -1 21 3 19 17 -3 15 1 17 22 12 15 -4 26 -2 26
4 0 5 7 10 16 10 9 0 12 5 8 12 -4 7 -3 8 5 4 6 -4 9 -12 6 -17 -11 -17 5 -30
25 -19 16 9 18 7 15 -10 -2 -11 -1 -18 4 -16 4 3 13 1 21 -4 9 -5 19 -5 26 1
18 14 29 -8 13 -27 -10 -12 -9 -13 6 -8 10 4 21 1 26 -7 7 -11 11 -12 17 -1
13 19 102 -35 103 -63 1 -15 2 -16 6 -4 3 15 10 14 61 -7 31 -13 67 -24 80
-24 17 0 22 -6 23 -27 l1 -28 8 25 c5 18 2 29 -9 39 -14 12 -14 13 2 7 10 -3
23 -6 28 -6 6 0 8 -4 5 -9 -6 -9 16 -21 38 -21 8 0 13 13 14 31 0 17 3 33 6
36 9 10 26 -8 26 -28 0 -19 1 -19 16 -4 15 15 18 15 35 -1 18 -16 19 -16 19
-1 0 10 6 17 13 17 9 0 11 12 9 41 l-4 42 38 -8 c22 -4 44 -11 49 -15 6 -5 17
-5 25 0 8 5 28 6 45 3 55 -10 13 12 -77 41 -49 15 -88 31 -88 36 0 12 29 20
35 10 9 -15 25 -12 25 5 0 18 12 19 28 3 8 -8 15 -8 28 3 12 9 15 10 10 2 -10
-17 16 -17 33 0 11 10 12 9 6 -1 -5 -10 -1 -13 16 -12 66 6 65 -4 -1 -15 -41
-7 -62 -13 -46 -14 16 0 35 -9 43 -18 9 -11 11 -12 7 -3 -6 12 -4 12 12 -1 10
-9 25 -14 32 -12 14 6 17 -33 2 -42 -6 -3 -10 1 -10 10 0 9 -5 13 -10 10 -6
-4 -8 -11 -5 -16 4 -5 0 -9 -7 -9 -7 0 -2 -9 11 -19 21 -16 23 -22 16 -71 -4
-30 -10 -47 -15 -40 -4 7 -10 -3 -15 -27 -6 -32 -9 -35 -15 -18 -5 11 -9 16
-10 10 -6 -38 -11 -51 -23 -60 -8 -6 -18 -30 -22 -55 -7 -41 -6 -43 9 -31 16
13 17 12 10 -15 -4 -16 -11 -39 -15 -52 -11 -30 -11 -35 1 -27 6 3 10 2 10 -2
0 -5 -9 -14 -20 -21 -11 -7 -20 -21 -20 -32 0 -11 -5 -20 -10 -20 -7 0 -9 -19
-6 -50 2 -27 1 -62 -4 -77 -7 -24 -8 -20 -9 25 -1 29 -4 51 -9 49 -4 -3 -5 16
-3 41 3 48 -4 56 -12 12 -10 -53 -19 -72 -28 -58 -9 13 -12 -19 -10 -87 1 -26
-1 -27 -8 -10 -8 17 -10 15 -11 -15 -1 -19 -2 -42 -1 -52 1 -9 -3 -19 -9 -23
-6 -4 -10 17 -11 62 l-2 68 -12 -60 -13 -60 -1 74 c-1 88 -9 91 -12 6 -2 -33
-5 -64 -7 -69 -3 -5 -6 -50 -8 -100 -4 -107 -9 -154 -18 -163 -3 -4 -7 20 -7
53 l-1 59 -14 -70 c-7 -38 -13 -88 -12 -110 1 -23 -1 -45 -4 -50 -3 -6 -6 -26
-6 -45 1 -19 -4 -48 -11 -63 -6 -16 -9 -33 -5 -38 3 -5 1 -9 -3 -9 -5 0 -13
-9 -18 -19 -6 -11 -25 -49 -43 -84 -26 -50 -34 -79 -36 -128 -2 -55 17 -145
33 -159 3 -3 7 -12 7 -20 1 -8 5 -27 9 -43 4 -17 3 -27 -3 -27 -7 0 -8 -11 -2
-31 8 -29 7 -32 -20 -42 -17 -6 -30 -17 -30 -24 0 -17 -1 -17 -66 13 -31 14
-58 24 -60 22 -2 -3 31 -24 74 -48 94 -54 322 -194 498 -306 72 -46 133 -84
136 -84 3 0 37 -18 74 -40 38 -22 74 -40 80 -40 12 0 57 100 101 225 28 77
146 319 198 405 30 48 108 121 154 142 9 5 1 5 -16 2 -27 -5 -32 -3 -27 10 3
9 10 16 14 16 5 0 16 7 24 15 8 9 30 18 48 20 35 4 54 8 78 18 8 4 31 8 50 9
37 3 73 28 56 40 -6 4 -7 10 -3 14 14 15 90 -19 126 -55 59 -61 192 -165 256
-201 33 -18 111 -71 173 -117 99 -74 144 -99 227 -128 19 -7 19 -7 1 -14 -17
-7 -16 -9 11 -29 17 -12 43 -22 58 -22 14 0 24 -4 20 -9 -8 -14 102 -64 138
-63 20 0 50 -11 78 -29 53 -33 70 -37 45 -10 -17 19 -16 19 26 9 24 -5 51 -11
62 -14 10 -2 21 -6 25 -10 3 -4 -3 -4 -14 -1 -16 6 -14 2 8 -17 15 -14 27 -32
27 -40 0 -8 23 -31 51 -51 100 -72 164 -128 176 -154 6 -14 31 -39 55 -54 43
-28 43 -28 11 -22 -51 10 -39 -2 40 -38 103 -49 166 -61 300 -62 100 0 117 -2
114 -15 -3 -8 -19 -62 -36 -120 -16 -58 -37 -136 -45 -175 -17 -83 -138 -424
-144 -407 -2 7 -19 12 -37 12 -31 0 -35 4 -44 37 -6 20 -8 40 -5 44 3 5 -1 19
-7 31 -7 13 -13 43 -14 68 -4 81 -16 150 -27 144 -7 -4 -8 5 -3 27 4 23 3 30
-3 20 -8 -11 -11 -9 -15 10 -3 13 -3 -3 0 -36 3 -33 7 -87 10 -120 2 -33 6
-81 8 -107 2 -27 -1 -48 -6 -48 -9 0 -11 16 -14 110 -3 86 -16 164 -26 149 -7
-12 -9 -12 -10 1 0 8 -4 4 -8 -10 l-7 -24 -11 29 c-6 17 -28 102 -49 190 -21
88 -42 165 -47 170 -5 6 -6 -4 -2 -25 l8 -35 -26 31 c-14 16 -48 67 -75 112
l-50 81 36 -5 c35 -4 32 -1 -47 52 -46 31 -100 63 -120 71 -50 21 -139 76
-252 155 -155 109 -433 273 -497 292 -20 7 -21 5 -13 -16 4 -13 16 -68 25
-123 9 -55 29 -183 46 -285 28 -170 52 -277 78 -340 9 -22 11 -22 12 -5 1 20
15 -28 98 -349 23 -87 53 -179 67 -203 14 -25 22 -49 19 -55 -3 -5 1 -17 10
-27 15 -17 15 -19 1 -25 -27 -10 -16 -100 35 -266 26 -85 64 -216 85 -290 20
-74 62 -215 92 -314 30 -98 52 -181 49 -184 -8 -7 -113 75 -132 104 -26 39
-240 221 -329 279 -125 83 -142 98 -219 193 -94 118 -206 237 -199 214 6 -25
-23 -49 -45 -36 -9 6 -35 52 -57 102 -157 356 -138 324 -274 464 -72 74 -132
128 -143 128 -10 0 -30 -8 -45 -17 -25 -17 -26 -16 -52 14 -17 21 -44 37 -79
47 -29 8 -66 24 -81 36 -16 11 -36 20 -44 20 -8 0 -18 8 -22 18 -7 16 -8 15
-15 -3 -13 -30 -12 -133 1 -158 7 -12 11 -64 10 -131 -2 -103 -8 -138 -18
-108 -3 7 -11 19 -19 26 -8 8 -11 22 -8 30 4 12 0 16 -15 16 -21 0 -29 -24
-12 -34 5 -4 35 -44 66 -91 72 -106 86 -120 74 -68 -8 36 -14 341 -6 349 2 2
41 -61 87 -139 46 -78 125 -200 175 -272 50 -71 111 -159 135 -194 23 -35 57
-80 75 -100 18 -20 86 -117 153 -216 66 -99 145 -211 176 -250 31 -38 83 -108
116 -155 32 -47 111 -141 177 -209 65 -68 156 -174 203 -235 l86 -111 162 -2
c123 -2 162 0 162 10 -1 16 -30 54 -30 39 0 -7 -4 -12 -9 -12 -4 0 -6 12 -3
28 5 25 4 26 -13 12 -12 -9 -7 2 10 27 l30 42 36 -35 c44 -43 62 -29 25 19
-15 19 -26 41 -26 49 0 16 27 44 34 37 11 -10 66 -176 66 -196 l0 -23 469 0
469 0 7 32 c4 18 18 60 30 93 39 105 76 215 130 395 29 96 56 174 59 172 18
-9 27 10 41 88 9 47 23 117 32 155 l16 70 18 -40 18 -40 0 125 c1 69 4 168 7
220 4 52 8 118 9 145 2 28 12 93 23 145 34 157 72 373 72 404 0 16 15 99 34
185 49 222 55 254 49 264 -3 5 -1 12 4 16 5 3 24 80 42 171 18 91 43 210 56
265 13 55 27 129 30 165 7 75 24 148 36 156 5 3 9 19 9 37 0 22 3 28 11 20 16
-16 89 17 89 40 0 11 9 31 19 45 16 24 18 36 11 102 -5 41 -15 93 -24 115 -13
36 -13 41 1 52 8 6 21 9 28 7 14 -6 165 42 180 57 7 7 3 8 -10 4 -19 -6 -19
-6 -2 5 10 7 21 9 24 6 12 -11 104 45 113 70 7 18 16 24 32 22 13 -2 26 -7 29
-12 14 -19 59 74 89 183 52 192 102 293 171 342 38 27 43 22 88 -81 56 -131
134 -280 142 -274 5 3 14 -6 20 -20 7 -14 15 -23 20 -20 4 2 8 -4 9 -13 2 -51
6 -71 11 -67 4 2 13 -15 21 -39 8 -23 20 -58 27 -77 7 -19 24 -69 37 -110 13
-41 27 -82 30 -90 3 -8 8 -28 9 -45 7 -68 25 -154 46 -220 13 -38 22 -73 21
-77 -1 -4 12 -70 28 -147 35 -166 36 -189 10 -241 -11 -22 -20 -45 -20 -52 0
-7 -11 -35 -25 -63 -14 -28 -25 -68 -25 -92 0 -24 -6 -45 -13 -50 -13 -8 -111
-283 -103 -290 2 -2 19 39 37 92 27 74 37 94 49 89 8 -4 26 -7 40 -8 21 -1 27
6 39 44 8 25 25 70 37 101 13 31 24 62 24 68 0 7 6 19 14 26 12 12 16 12 27
-1 10 -12 10 -22 0 -49 -16 -46 -4 -131 22 -156 18 -16 19 -22 7 -43 -8 -15
-9 -32 -4 -43 8 -18 10 -28 17 -119 7 -81 17 -113 38 -125 11 -5 17 -14 14
-19 -3 -5 -1 -11 3 -14 5 -3 9 -21 10 -41 1 -33 16 -73 32 -85 3 -3 11 -21 17
-40 l11 -35 1 30 c0 17 -6 73 -13 125 -8 52 -22 151 -31 220 -9 69 -32 230
-51 358 l-36 232 24 48 c13 26 30 67 37 92 7 25 17 59 22 75 14 42 117 359
177 545 27 85 52 169 55 185 6 27 5 27 -12 -8 -21 -44 -41 -68 -41 -49 0 7 -8
12 -17 11 -15 0 -14 -3 5 -16 29 -20 28 -45 -3 -91 -14 -20 -25 -30 -25 -22 0
20 -29 -35 -45 -85 -13 -39 -13 -39 -22 -16 l-10 25 -7 -28 c-8 -31 -1 -46 20
-46 21 0 17 -15 -12 -50 -15 -17 -33 -29 -40 -26 -17 6 -34 -51 -27 -88 4 -21
2 -25 -10 -20 -11 4 -18 -6 -26 -43 -14 -64 -56 -150 -65 -132 -7 15 2 -80 10
-109 2 -9 -4 2 -15 26 -11 23 -20 57 -19 75 1 36 -24 155 -47 232 -9 28 -13
61 -10 73 3 13 2 29 -4 35 -5 7 -20 50 -34 97 -110 368 -156 513 -203 643 -30
82 -51 154 -48 159 4 6 23 7 48 3 22 -4 64 -6 91 -5 28 2 70 4 95 5 25 1 62 9
82 18 21 10 50 17 65 17 39 0 94 42 122 94 l25 44 -38 119 c-21 65 -67 190
-103 278 -57 142 -65 170 -73 260 -5 55 -14 124 -20 154 -5 29 -10 129 -10
222 0 149 3 177 24 246 13 43 27 98 31 123 7 50 24 90 37 90 5 0 7 -4 4 -9 -6
-9 40 -21 85 -21 26 0 28 3 25 29 -2 15 -6 33 -10 39 -11 18 17 20 67 5 27 -8
52 -12 55 -9 3 3 -1 6 -9 6 -19 0 -51 38 -43 51 10 16 -14 36 -54 44 -20 4
-31 10 -25 12 9 3 8 9 -4 21 -9 9 -21 17 -26 17 -5 0 -15 8 -20 17 -8 13 -5
30 12 70 13 29 30 67 37 84 17 39 30 45 74 30 24 -8 40 -23 54 -49 18 -34 22
-37 33 -21 11 15 13 13 18 -12 11 -50 15 -56 36 -61 15 -4 19 -12 17 -32 -2
-14 -9 -27 -15 -27 -7 -1 -17 -2 -23 -3 -5 0 -7 -7 -4 -14 4 -12 9 -43 13 -84
2 -21 27 -15 39 10 8 16 11 17 11 6 1 -9 8 -22 17 -29 13 -12 14 -8 9 41 -4
30 -20 106 -36 170 -16 64 -26 124 -23 133 4 10 -2 23 -16 34 -20 16 -21 20
-7 25 10 4 18 -1 22 -14 4 -10 12 -19 20 -19 7 0 27 -16 44 -35 24 -28 31 -45
31 -79 0 -36 41 -245 55 -281 2 -5 4 207 4 473 1 436 -1 482 -15 482 -10 0
-14 6 -10 15 3 8 1 15 -5 15 -5 0 -15 11 -21 25 -6 14 -16 24 -22 22 -18 -6
-74 92 -85 147 -6 28 -13 78 -17 111 -14 127 -109 479 -126 469 -5 -3 -6 6 -2
20 4 16 2 26 -4 26 -6 0 -10 12 -9 28 2 25 -1 27 -33 27 l-35 0 3 -65 c2 -36
25 -150 52 -255 26 -104 48 -212 49 -240 2 -48 12 -124 27 -192 5 -26 3 -33
-9 -33 -8 0 -20 7 -27 15 -7 8 -19 15 -26 15 -15 0 -33 57 -65 200 -11 52 -24
99 -28 103 -4 4 -24 10 -44 14 -28 4 -42 0 -64 -17 -39 -30 -44 -58 -22 -121
26 -74 35 -169 15 -169 -7 0 -17 7 -20 16 -9 24 -7 36 6 28 8 -5 9 -2 5 10
-18 47 -47 217 -47 276 0 37 -3 82 -6 99 -6 27 -11 31 -38 31 -45 0 -55 11
-59 57 -4 46 -30 93 -52 93 -8 0 -17 12 -20 28 -10 47 -40 115 -52 119 -9 3
-8 -6 2 -34 17 -47 74 -244 85 -298 13 -56 12 -258 0 -253 -5 2 -31 28 -57 60
-42 49 -55 77 -102 215 -45 133 -54 172 -58 248 -3 58 -1 85 5 76 7 -10 10 -6
10 13 0 15 -5 29 -11 33 -6 4 -8 0 -4 -11 4 -10 3 -15 -3 -11 -6 3 -10 28 -10
55 0 75 -6 84 -41 59 -16 -11 -29 -17 -30 -12 0 4 -6 -10 -14 -32 -10 -33 -13
-35 -14 -15 -1 20 -3 22 -11 10 -21 -31 -30 15 -30 150 0 143 -14 293 -30 332
-7 18 -9 10 -8 -37 0 -33 0 -132 -1 -220 -1 -135 -4 -157 -15 -142 -16 21 -32
22 -40 1 -9 -25 -7 -100 4 -130 10 -25 9 -26 -7 -13 -15 12 -16 12 -10 -4 3
-9 2 -28 -3 -42 -5 -14 -6 -25 -2 -25 4 0 8 -33 9 -73 1 -39 8 -112 17 -162 9
-49 16 -99 16 -110 0 -27 -15 -8 -30 38 -13 41 -13 41 -41 27 -12 -7 -19 -22
-20 -43 -1 -22 -3 -25 -6 -11 -5 25 -36 37 -53 20 -8 -8 -14 -7 -21 6 -15 28
-92 66 -127 64 -21 -1 -32 2 -32 11 0 7 -26 38 -57 69 -46 44 -54 57 -43 64
11 7 6 10 -18 10 -44 0 -139 61 -126 81 6 10 -31 30 -60 33 -26 3 -251 148
-283 183 -12 12 -29 23 -38 23 -8 0 -15 5 -15 10 0 6 -7 10 -15 10 -9 0 -19 8
-22 18 -4 9 -15 28 -25 41 -10 13 -18 38 -18 55 0 36 -13 61 -28 52 -13 -8
-22 42 -22 129 0 41 -4 75 -9 77 -5 2 -13 15 -16 31 -6 22 -4 27 10 27 16 0
17 8 11 72 -7 76 -17 98 -46 98 -22 0 -30 27 -30 101 0 31 -3 77 -6 103 l-7
46 -49 0 -50 0 6 -37 c25 -174 13 -370 -21 -342 -7 6 -26 9 -43 6 -25 -5 -32
-2 -46 22 -19 32 -80 66 -98 54 -24 -18 -47 -5 -86 46 -22 29 -40 57 -40 62 0
15 -37 10 -50 -6 -7 -8 -19 -15 -26 -15 -10 0 -14 -13 -14 -39 0 -31 -4 -41
-20 -46 -12 -4 -27 -1 -35 5 -8 6 -26 13 -40 14 -14 2 -33 10 -43 19 -9 8 -66
48 -127 88 -60 40 -139 94 -174 121 l-64 48 -2798 0 -2799 0 0 -2237z m871
855 c-13 -111 -24 -251 -24 -293 2 -85 -21 -376 -38 -493 -10 -73 -19 -138
-19 -145 0 -9 -2 -9 -8 0 -4 7 -18 -90 -31 -215 -12 -125 -33 -315 -46 -422
-14 -107 -31 -271 -40 -365 -9 -93 -18 -174 -20 -180 -2 -5 -4 125 -5 290 -1
165 -3 343 -5 395 -4 154 35 511 90 825 13 77 38 235 55 350 29 199 43 267 60
290 4 6 14 30 21 55 19 63 23 25 10 -92z m7137 -40 c6 -13 25 -59 43 -103 28
-69 45 -93 121 -172 l88 -91 0 -113 0 -112 -26 24 c-15 13 -50 58 -79 99 -30
41 -69 89 -87 106 -26 24 -38 46 -50 95 -9 35 -21 84 -27 109 -31 121 -35 161
-20 171 21 13 24 11 37 -13z m-3638 -138 c0 -5 -4 -10 -10 -10 -5 0 -10 5 -10
10 0 6 5 10 10 10 6 0 10 -4 10 -10z m-2433 -892 c-3 -8 -6 -5 -6 6 -1 11 2
17 5 13 3 -3 4 -12 1 -19z m-1109 -261 c1 -150 9 -326 17 -392 13 -115 20
-221 16 -276 0 -14 -10 -36 -21 -49 -12 -14 -18 -31 -14 -42 6 -20 -11 -25
-20 -5 -3 6 -3 0 0 -15 3 -14 0 -37 -7 -50 -16 -30 -101 -135 -114 -141 -7 -3
-8 27 -3 92 39 474 122 1151 140 1151 2 0 4 -123 6 -273z m1119 191 c-3 -7 -5
-2 -5 12 0 14 2 19 5 13 2 -7 2 -19 0 -25z m10 -60 c-3 -7 -5 -2 -5 12 0 14 2
19 5 13 2 -7 2 -19 0 -25z m58 -286 c20 -107 35 -198 33 -204 -5 -15 -88 423
-87 457 1 24 8 -7 54 -253z m42 -259 c-3 -10 -5 -4 -5 12 0 17 2 24 5 18 2 -7
2 -21 0 -30z m10 -55 c-3 -7 -5 -2 -5 12 0 14 2 19 5 13 2 -7 2 -19 0 -25z
m-1463 -293 c7 -126 11 -236 8 -242 -7 -22 -27 -14 -66 26 -37 38 -39 44 -39
103 -1 35 2 99 5 143 6 64 5 73 -4 45 -5 -19 -14 -44 -19 -55 -10 -24 -3 35
13 110 10 43 13 46 18 25 5 -22 7 -19 13 17 4 26 12 42 20 40 7 -1 13 11 15
28 2 17 6 37 10 45 8 19 10 0 26 -285z m1473 243 c-3 -7 -5 -2 -5 12 0 14 2
19 5 13 2 -7 2 -19 0 -25z m10 -50 c-3 -8 -6 -5 -6 6 -1 11 2 17 5 13 3 -3 4
-12 1 -19z m20 -90 c-3 -8 -6 -5 -6 6 -1 11 2 17 5 13 3 -3 4 -12 1 -19z
m-1619 -146 c-2 -9 -7 -20 -13 -24 -6 -5 -5 -11 4 -17 12 -8 12 -12 -2 -26
-10 -9 -17 -23 -17 -31 0 -8 -4 -14 -8 -14 -5 0 -2 31 7 69 8 38 19 67 24 64
4 -2 6 -12 5 -21z m262 -126 c0 -3 -4 -8 -10 -11 -5 -3 -10 -1 -10 4 0 6 5 11
10 11 6 0 10 -2 10 -4z m2131 -49 c-8 -8 -11 -3 -11 19 1 25 2 27 11 11 8 -14
8 -22 0 -30z m-2427 -19 c15 -58 -10 -248 -35 -263 -5 -4 -9 -18 -10 -33 0
-16 -3 -21 -6 -12 -3 8 -10 18 -15 21 -4 3 3 71 17 152 14 80 25 149 25 152 0
15 19 2 24 -17z m2306 -16 c0 -10 4 -22 9 -27 11 -13 35 -104 29 -111 -5 -4
-58 132 -58 149 0 4 5 7 10 7 6 0 10 -8 10 -18z m-1470 -109 c-24 -91 -33
-108 -50 -98 -17 11 -4 68 33 145 38 80 46 60 17 -47z m-66 82 c-4 -8 -8 -15
-10 -15 -2 0 -4 7 -4 15 0 8 4 15 10 15 5 0 7 -7 4 -15z m-629 -21 c9 -9 13
-24 10 -33 -7 -19 -45 -158 -45 -166 0 -4 -4 -4 -9 -1 -5 3 -5 26 0 52 5 25 6
57 3 70 -7 29 3 94 16 94 5 0 16 -7 25 -16z m-69 -40 c-7 -26 -26 -24 -26 2 0
18 24 46 28 33 2 -6 1 -21 -2 -35z m81 -66 c-3 -7 -5 -2 -5 12 0 14 2 19 5 13
2 -7 2 -19 0 -25z m-400 -65 c-2 -16 -4 -3 -4 27 0 30 2 43 4 28 2 -16 2 -40
0 -55z m284 2 c-6 -52 -9 -59 -10 -29 -1 41 9 108 15 102 1 -2 -1 -35 -5 -73z
m1774 -33 c-6 -6 -25 45 -31 83 -3 18 4 8 16 -24 11 -30 18 -57 15 -59z m675
82 c0 -8 -5 -12 -10 -9 -6 4 -8 11 -5 16 9 14 15 11 15 -7z m-1053 -14 c-6
-22 3 -26 20 -9 17 17 27 -9 25 -66 -1 -27 -5 -63 -10 -80 -9 -30 -9 -29 -25
25 -23 82 -31 150 -16 150 6 0 9 -8 6 -20z m-1200 -102 c-3 -8 -6 -5 -6 6 -1
11 2 17 5 13 3 -3 4 -12 1 -19z m1450 -85 c-3 -10 -5 -4 -5 12 0 17 2 24 5 18
2 -7 2 -21 0 -30z m668 -93 c3 -6 -1 -7 -9 -4 -18 7 -21 14 -7 14 6 0 13 -4
16 -10z m45 -15 c7 -8 8 -15 2 -15 -5 0 -15 7 -22 15 -7 8 -8 15 -2 15 5 0 15
-7 22 -15z m40 -11 c0 -8 -4 -12 -10 -9 -5 3 -10 10 -10 16 0 5 5 9 10 9 6 0
10 -7 10 -16z m74 -26 c2 -16 0 -28 -5 -28 -5 0 -9 7 -9 15 0 8 -7 15 -15 15
-18 0 -19 12 -3 28 15 15 25 5 32 -30z m336 -152 c0 -3 -4 -8 -10 -11 -5 -3
-10 -1 -10 4 0 6 5 11 10 11 6 0 10 -2 10 -4z m-49 -73 c-8 -15 -9 -12 -7 12
5 39 7 44 13 23 2 -10 0 -25 -6 -35z m192 -18 c-3 -9 -8 -14 -10 -11 -3 3 -2
9 2 15 9 16 15 13 8 -4z m-3203 -297 c22 -76 22 -115 -3 -104 -6 2 -36 12 -65
21 -39 12 -52 21 -48 32 3 8 2 22 -3 31 -4 9 -11 37 -14 62 -5 33 -4 39 3 23
5 -13 14 -23 20 -23 14 0 13 17 -2 23 -10 4 -9 8 2 16 12 8 16 5 18 -19 2 -17
12 -34 23 -40 23 -13 22 -20 4 105 -24 167 -18 197 14 65 15 -63 38 -150 51
-192z m-114 185 c-7 -7 -26 7 -26 19 0 6 6 6 15 -2 9 -7 13 -15 11 -17z m3498
-84 c-5 -8 -10 -6 -16 5 -5 9 -6 21 -2 27 5 8 10 6 16 -5 5 -9 6 -21 2 -27z
m-3284 21 c0 -5 -2 -10 -4 -10 -3 0 -8 5 -11 10 -3 6 -1 10 4 10 6 0 11 -4 11
-10z m3177 -22 c-3 -7 -5 -2 -5 12 0 14 2 19 5 13 2 -7 2 -19 0 -25z m4513
-17 c11 -22 24 -42 29 -46 6 -3 8 -12 5 -19 -3 -7 16 -75 41 -150 45 -138 59
-198 27 -118 -15 35 -20 40 -32 30 -12 -11 -12 -10 -2 3 10 13 -1 44 -57 170
-38 85 -67 157 -64 162 11 18 34 4 53 -32z m-4754 -89 c-4 -3 -11 0 -16 8 -15
24 -11 33 6 15 9 -9 13 -19 10 -23z m248 12 c5 -14 4 -15 -9 -4 -17 14 -19 20
-6 20 5 0 12 -7 15 -16z m2005 -390 c9 -8 -13 -24 -32 -24 -18 0 -19 2 -7 11
11 8 5 9 -25 6 l-40 -5 30 13 c25 12 60 11 74 -1z m1456 -667 c-15 -143 -79
-498 -96 -527 -24 -42 -2 316 27 432 8 32 14 66 14 76 0 19 34 62 50 62 5 0 7
-19 5 -43z m-2168 -19 c3 -7 -8 -2 -25 10 -17 13 -35 28 -39 34 -3 7 8 2 25
-10 17 -13 35 -28 39 -34z m44 -35 l24 -26 -27 19 c-15 10 -28 22 -28 27 0 12
5 8 31 -20z m-1105 -135 c5 -7 3 -8 -6 -3 -10 6 -12 4 -7 -7 8 -21 -3 -30 -20
-17 -11 10 -10 14 4 25 22 16 20 16 29 2z m1294 -28 c8 -5 11 -10 5 -10 -5 0
-17 5 -25 10 -8 5 -10 10 -5 10 6 0 17 -5 25 -10z m136 -46 c18 -14 18 -14 -6
-3 -31 14 -36 19 -24 19 6 0 19 -7 30 -16z m343 -31 c22 -18 21 -18 -20 -20
-23 -2 -52 4 -67 13 -15 8 -19 13 -9 10 58 -18 67 -18 61 -2 -8 21 8 20 35 -1z
m-321 0 c-10 -2 -26 -2 -35 0 -10 3 -2 5 17 5 19 0 27 -2 18 -5z m-51 -29 c-3
-3 -12 -4 -19 -1 -8 3 -5 6 6 6 11 1 17 -2 13 -5z m-1485 -55 c-6 -35 -34 -79
-46 -71 -6 4 -14 7 -18 7 -22 0 0 75 25 85 32 12 42 6 39 -21z m-534 -8 c3 -8
-5 -7 -22 4 -32 21 -33 27 -4 16 12 -4 24 -14 26 -20z m3769 -173 c-3 -8 -6
-5 -6 6 -1 11 2 17 5 13 3 -3 4 -12 1 -19z m-462 -355 c-18 -101 -25 -126 -31
-120 -3 3 5 58 17 123 13 66 25 111 27 102 2 -10 -4 -57 -13 -105z m-706 -110
c10 -37 31 -181 31 -209 0 -23 -30 -16 -40 10 -5 13 -9 48 -9 77 0 30 -4 72
-9 94 -15 69 10 94 27 28z m666 -75 c-6 -31 -22 -166 -30 -258 -4 -41 -31
-190 -61 -330 -30 -140 -61 -314 -69 -387 -8 -72 -21 -162 -29 -200 -8 -37
-17 -99 -21 -138 -11 -120 -24 -132 -39 -40 -4 22 -22 85 -41 140 -58 172 -65
207 -66 327 -1 62 -4 100 -6 83 -3 -16 -11 -37 -18 -48 -24 -34 -28 26 -5 85
11 29 20 63 20 75 0 12 18 55 41 95 22 40 37 62 33 48 -20 -69 -8 -113 29
-108 18 2 23 12 29 53 4 28 32 124 62 215 48 147 54 160 55 120 2 -63 11 -42
62 138 23 83 46 152 51 152 5 0 6 -10 3 -22z m-2805 -69 c0 -6 -4 -7 -10 -4
-5 3 -10 11 -10 16 0 6 5 7 10 4 6 -3 10 -11 10 -16z m305 -59 c-3 -5 -10 -10
-16 -10 -5 0 -9 5 -9 10 0 6 7 10 16 10 8 0 12 -4 9 -10z m1329 -482 l16 -33
-20 24 c-11 13 -20 27 -20 32 0 17 9 9 24 -23z m1220 -180 c-4 -29 -10 -71
-14 -93 -7 -35 -8 -32 -9 30 -1 76 6 115 21 115 5 0 6 -22 2 -52z m42 -332
c-5 -107 -3 -140 10 -179 15 -45 15 -52 -15 -203 -46 -226 -131 -475 -166
-482 -8 -2 -15 -8 -15 -13 0 -19 -40 -8 -56 16 -9 14 -23 25 -30 25 -8 0 -14
7 -14 16 0 10 -6 14 -15 10 -20 -7 -20 50 0 207 15 128 72 395 87 414 5 6 16
9 24 6 8 -3 14 1 14 10 0 8 11 35 25 58 13 24 32 77 41 117 9 39 18 72 21 72
6 0 -1 -77 -12 -150 -5 -35 -5 -35 5 -5 6 17 15 73 21 125 6 52 13 98 15 102
2 4 18 2 36 -4 l31 -11 -7 -131z"/>
<path d="M822 7140 c0 -19 2 -27 5 -17 2 9 2 25 0 35 -3 9 -5 1 -5 -18z"/>
<path d="M813 7050 c0 -25 2 -35 4 -22 2 12 2 32 0 45 -2 12 -4 2 -4 -23z"/>
<path d="M802 6960 c0 -19 2 -27 5 -17 2 9 2 25 0 35 -3 9 -5 1 -5 -18z"/>
<path d="M793 6835 c0 -27 2 -38 4 -22 2 15 2 37 0 50 -2 12 -4 0 -4 -28z"/>
<path d="M783 6740 c0 -25 2 -35 4 -22 2 12 2 32 0 45 -2 12 -4 2 -4 -23z"/>
<path d="M5740 1920 c0 -5 5 -10 11 -10 5 0 7 5 4 10 -3 6 -8 10 -11 10 -2 0
-4 -4 -4 -10z"/>
<path d="M8913 8962 c16 -7 16 -9 -3 -25 -11 -9 -25 -17 -30 -17 -6 0 -10 -5
-10 -11 0 -6 -6 -9 -14 -6 -8 3 -18 -5 -25 -19 -9 -20 -8 -26 4 -30 21 -9 19
-25 -8 -54 -24 -26 -26 -53 -3 -44 8 3 17 -3 21 -13 33 -81 55 -165 55 -208 0
-69 17 -155 41 -210 11 -25 22 -45 24 -45 3 0 5 155 5 345 l0 345 -37 -1 c-25
0 -32 -3 -20 -7z m-17 -179 c8 -32 18 -67 20 -78 8 -35 -23 26 -36 72 -7 23
-17 40 -21 37 -5 -3 -6 2 -3 10 11 29 23 16 40 -41z"/>
<path d="M8710 8885 c30 -31 34 -33 46 -17 11 14 10 18 -4 21 -9 2 -26 10 -37
17 -36 26 -39 14 -5 -21z"/>
<path d="M8626 7960 c5 -43 10 -58 17 -49 2 2 -2 24 -9 49 l-14 45 6 -45z"/>
<path d="M8936 4920 c-10 -94 -22 -187 -27 -207 -4 -21 -4 -40 1 -43 5 -3 12
-29 16 -58 6 -48 5 -54 -13 -58 -16 -4 -23 -19 -32 -62 -14 -70 -14 -72 4 -72
21 0 19 -17 -3 -22 -14 -4 -20 -24 -30 -93 -10 -64 -10 -91 -2 -99 8 -8 9 -6
5 7 -4 10 -2 17 5 17 6 0 8 5 3 13 -18 30 9 122 37 124 11 1 19 -1 16 -5 -2
-4 2 -13 10 -19 30 -29 38 49 41 405 1 188 -1 342 -5 342 -5 0 -16 -77 -26
-170z"/>
<path d="M8869 4855 c-4 -5 -10 -28 -13 -50 -7 -36 -6 -38 7 -21 8 10 18 16
24 13 5 -3 10 0 10 8 0 8 -4 15 -8 15 -4 0 -9 10 -11 23 -2 12 -6 18 -9 12z"/>
<path d="M1350 4820 c0 -5 5 -10 10 -10 6 0 10 5 10 10 0 6 -4 10 -10 10 -5 0
-10 -4 -10 -10z"/>
<path d="M3052 4705 c0 -16 2 -22 5 -12 2 9 2 23 0 30 -3 6 -5 -1 -5 -18z"/>
<path d="M1354 4542 c5 -124 13 -172 27 -172 11 0 3 229 -10 263 -6 15 -13 27
-17 27 -3 0 -3 -53 0 -118z"/>
<path d="M2891 4634 c0 -11 3 -14 6 -6 3 7 2 16 -1 19 -3 4 -6 -2 -5 -13z"/>
<path d="M3242 4590 c0 -14 2 -19 5 -12 2 6 2 18 0 25 -3 6 -5 1 -5 -13z"/>
<path d="M8777 4571 c-4 -17 -3 -21 5 -13 5 5 8 16 6 23 -3 8 -7 3 -11 -10z"/>
<path d="M2801 4514 c0 -11 3 -14 6 -6 3 7 2 16 -1 19 -3 4 -6 -2 -5 -13z"/>
<path d="M2791 4464 c0 -11 3 -14 6 -6 3 7 2 16 -1 19 -3 4 -6 -2 -5 -13z"/>
<path d="M3216 4433 c-6 -14 -5 -15 5 -6 7 7 10 15 7 18 -3 3 -9 -2 -12 -12z"/>
<path d="M3022 4333 c-1 -23 -5 -50 -8 -60 -5 -14 -4 -15 5 -7 8 7 11 30 8 60
-3 48 -3 48 -5 7z"/>
<path d="M2756 4302 c1 -40 -4 -86 -36 -297 -25 -167 -40 -311 -39 -372 1 -26
7 11 15 82 8 72 23 195 35 275 41 284 47 350 31 350 -5 0 -7 -17 -6 -38z"/>
<path d="M2909 4325 c-3 -5 -6 -35 -7 -65 l-1 -55 10 45 c10 46 9 93 -2 75z"/>
<path d="M3042 4310 c0 -14 2 -19 5 -12 2 6 2 18 0 25 -3 6 -5 1 -5 -13z"/>
<path d="M3112 4280 c0 -14 2 -19 5 -12 2 6 2 18 0 25 -3 6 -5 1 -5 -13z"/>
<path d="M2980 4271 c0 -25 6 -27 13 -6 4 8 2 17 -3 20 -6 4 -10 -3 -10 -14z"/>
<path d="M8920 4258 c0 -9 -6 -21 -14 -27 -8 -7 -12 -25 -9 -49 4 -41 -6 -55
-44 -64 -15 -4 -23 -1 -26 11 -3 9 -5 1 -6 -16 -1 -22 4 -33 13 -33 8 0 20 -2
28 -5 8 -3 20 8 30 27 18 36 43 157 34 166 -3 3 -6 -2 -6 -10z"/>
<path d="M2841 4214 c0 -11 3 -14 6 -6 3 7 2 16 -1 19 -3 4 -6 -2 -5 -13z"/>
<path d="M2932 4205 c0 -16 2 -22 5 -12 2 9 2 23 0 30 -3 6 -5 -1 -5 -18z"/>
<path d="M2956 4153 c-4 -27 -9 -57 -12 -68 -4 -16 -3 -17 4 -5 11 16 27 120
19 120 -3 0 -8 -21 -11 -47z"/>
<path d="M8830 4169 c0 -11 4 -18 10 -14 5 3 7 12 3 20 -7 21 -13 19 -13 -6z"/>
<path d="M2922 4130 c0 -19 2 -27 5 -17 2 9 2 25 0 35 -3 9 -5 1 -5 -18z"/>
<path d="M2581 4084 c0 -11 3 -14 6 -6 3 7 2 16 -1 19 -3 4 -6 -2 -5 -13z"/>
<path d="M2972 4065 c0 -16 2 -22 5 -12 2 9 2 23 0 30 -3 6 -5 -1 -5 -18z"/>
<path d="M2883 3905 c-28 -156 -60 -351 -93 -570 -5 -33 -9 -78 -9 -100 1 -70
15 -10 33 140 10 77 37 259 62 405 25 146 43 274 42 285 -2 11 -18 -61 -35
-160z"/>
<path d="M8830 4053 c-18 -7 -30 -23 -30 -41 0 -10 5 -10 20 -2 11 6 18 15 15
21 -4 5 1 9 9 9 9 0 16 5 16 10 0 11 -7 12 -30 3z"/>
<path d="M2571 4034 c0 -11 3 -14 6 -6 3 7 2 16 -1 19 -3 4 -6 -2 -5 -13z"/>
<path d="M8874 3983 c-9 -46 -11 -48 -39 -44 -17 1 -33 8 -37 15 -5 6 -8 2 -8
-10 0 -22 17 -34 56 -41 19 -3 23 4 33 58 7 33 10 63 8 65 -3 3 -9 -17 -13
-43z"/>
<path d="M2561 3984 c0 -11 3 -14 6 -6 3 7 2 16 -1 19 -3 4 -6 -2 -5 -13z"/>
<path d="M2940 3918 c-12 -74 -24 -135 -31 -153 -2 -5 0 -12 6 -15 6 -3 15 29
22 75 6 44 14 99 18 123 4 23 4 42 2 42 -3 0 -11 -33 -17 -72z"/>
<path d="M2552 3930 c0 -14 2 -19 5 -12 2 6 2 18 0 25 -3 6 -5 1 -5 -13z"/>
<path d="M8771 3854 c0 -11 3 -14 6 -6 3 7 2 16 -1 19 -3 4 -6 -2 -5 -13z"/>
<path d="M141 3814 c0 -11 3 -14 6 -6 3 7 2 16 -1 19 -3 4 -6 -2 -5 -13z"/>
<path d="M8721 3689 c-7 -22 -11 -43 -8 -45 2 -2 9 14 16 37 7 22 11 43 8 45
-2 2 -9 -14 -16 -37z"/>
<path d="M8491 3623 c-1 -6 -4 -20 -7 -30 -5 -17 -5 -17 6 0 6 10 9 23 6 30
-3 9 -5 9 -5 0z"/>
<path d="M8692 3593 c-15 -48 -8 -55 8 -8 7 20 10 38 8 41 -3 2 -10 -13 -16
-33z"/>
<path d="M961 3350 c19 -50 67 -140 74 -140 5 0 -75 174 -86 184 -4 5 1 -15
12 -44z"/>
<path d="M751 3304 c0 -11 3 -14 6 -6 3 7 2 16 -1 19 -3 4 -6 -2 -5 -13z"/>
<path d="M730 3271 c0 -5 7 -11 15 -15 9 -3 15 0 15 9 0 8 -7 15 -15 15 -8 0
-15 -4 -15 -9z"/>
<path d="M1070 3256 c0 -2 8 -10 18 -17 15 -13 16 -12 3 4 -13 16 -21 21 -21
13z"/>
<path d="M743 3123 c-1 -49 1 -79 4 -69 4 15 7 16 14 5 10 -16 12 92 3 129
-12 45 -20 20 -21 -65z"/>
<path d="M1429 3057 c19 -21 39 -37 44 -37 14 0 -11 28 -47 52 l-31 21 34 -36z"/>
<path d="M7171 2954 c0 -11 3 -14 6 -6 3 7 2 16 -1 19 -3 4 -6 -2 -5 -13z"/>
<path d="M7180 2924 c0 -23 34 -184 38 -180 5 6 -28 186 -34 186 -2 0 -4 -3
-4 -6z"/>
<path d="M8601 2814 c0 -11 3 -14 6 -6 3 7 2 16 -1 19 -3 4 -6 -2 -5 -13z"/>
<path d="M102 2721 c-22 -6 -19 -10 41 -66 131 -122 190 -163 241 -169 67 -9
79 -24 134 -168 27 -73 62 -171 76 -218 14 -47 46 -152 71 -235 60 -194 61
-200 45 -190 -7 4 -3 -5 8 -21 27 -36 88 -195 112 -289 10 -38 21 -126 25
-195 7 -128 43 -388 71 -518 9 -40 14 -75 12 -78 -8 -7 -71 78 -73 97 -2 26
-53 99 -69 99 -8 0 -17 8 -20 18 -6 21 -52 335 -60 417 -9 78 -69 399 -103
542 -24 105 -26 152 -3 138 18 -11 11 4 -14 27 -13 13 -36 59 -51 106 -24 74
-33 87 -57 83 -4 0 -12 8 -18 19 -9 16 -198 164 -270 211 -22 15 -23 19 -12
44 7 15 21 29 32 32 11 3 20 8 20 11 0 2 -17 24 -37 47 -21 23 -60 67 -86 98
-27 31 -55 57 -63 57 -8 0 -14 7 -14 15 0 8 -9 19 -20 25 -16 9 -20 8 -20 -5
0 -8 3 -14 8 -13 11 3 72 -55 72 -69 0 -21 -17 -15 -23 8 -3 11 -15 23 -26 26
-11 3 -18 9 -15 14 3 5 0 9 -5 9 -8 0 -11 -67 -11 -204 0 -202 0 -204 23 -211
l22 -8 -22 -4 c-19 -4 -23 -11 -23 -40 0 -27 3 -34 15 -29 8 3 21 8 29 12 9 3
15 -7 20 -37 6 -35 3 -46 -15 -65 -13 -13 -28 -24 -36 -24 -11 0 -13 -178 -13
-1010 l0 -1010 260 0 c143 0 260 3 260 8 0 25 -118 238 -165 301 -32 40 -59
85 -61 100 -14 109 -16 161 -5 161 6 0 11 -4 11 -10 0 -5 5 -10 11 -10 11 0 6
101 -7 121 -3 5 -1 9 5 9 5 0 12 -12 14 -27 2 -16 2 14 0 64 -2 51 -2 93 1 93
4 0 18 -25 32 -55 15 -31 60 -93 101 -138 41 -45 100 -120 130 -167 55 -84
154 -206 199 -245 20 -17 24 -33 30 -112 6 -81 9 -93 25 -93 17 0 19 9 19 77
0 76 0 76 20 58 18 -16 22 -17 33 -3 28 35 65 26 59 -14 -2 -10 2 -18 8 -18
28 0 80 -33 80 -51 0 -11 5 -19 10 -19 6 0 10 -7 10 -15 0 -11 12 -15 44 -15
l44 0 -5 42 c-3 24 -19 122 -35 218 -17 96 -32 207 -34 245 l-4 70 24 -75 c13
-42 54 -157 91 -255 38 -99 72 -195 77 -212 6 -23 15 -33 28 -33 28 0 25 15
-19 132 -21 57 -42 112 -46 123 -6 14 -5 17 3 10 14 -13 102 -229 102 -249 0
-10 9 -16 26 -16 32 0 34 -7 -61 220 -41 96 -85 218 -100 270 -15 52 -46 156
-70 230 -87 269 -145 490 -155 587 -13 120 -41 262 -84 423 -59 215 -74 313
-86 530 -18 335 -26 414 -46 431 -13 10 -14 7 -10 -27 3 -21 8 -104 11 -184 7
-154 12 -210 20 -218 3 -3 1 -10 -4 -16 -14 -16 -15 -100 -3 -181 15 -102 24
-261 13 -250 -8 9 -53 151 -81 255 -6 25 -17 54 -24 65 -7 11 -41 107 -76 214
-44 138 -65 190 -71 179 -16 -28 -3 -91 59 -278 100 -305 213 -672 209 -676
-5 -5 -124 348 -177 525 -22 73 -59 184 -81 245 -23 61 -54 144 -69 185 -25
67 -28 72 -34 47 -4 -16 -2 -44 5 -63 6 -19 9 -37 6 -39 -3 -3 -36 10 -73 29
-71 36 -158 105 -229 181 -32 34 -45 42 -63 37z m-32 -211 c7 -19 22 -47 32
-62 20 -30 23 -42 7 -32 -8 4 -8 0 0 -15 7 -11 16 -21 21 -21 6 0 10 -5 10
-12 0 -6 12 -27 27 -47 16 -20 27 -39 25 -43 -1 -5 6 -8 16 -8 12 0 13 -3 5
-8 -7 -4 -14 -19 -17 -32 -2 -14 -9 -24 -16 -22 -7 2 -9 -5 -5 -19 4 -12 3
-20 -1 -18 -5 2 -26 11 -46 18 -35 14 -38 18 -53 85 -28 119 -55 265 -55 293
l0 26 18 -24 c10 -13 24 -40 32 -59z m307 -392 c13 -13 32 -31 42 -41 22 -22
76 -179 68 -199 -2 -8 4 -24 14 -37 15 -18 19 -19 19 -7 0 9 4 16 10 16 5 0 9
-3 8 -7 -1 -5 3 -17 9 -29 7 -11 10 -29 9 -40 -2 -10 0 -21 4 -24 18 -14 75
-251 99 -418 14 -95 14 -103 -4 -96 -8 4 -15 16 -15 28 0 25 -107 169 -122
164 -17 -6 -11 -23 11 -34 22 -11 58 -54 46 -54 -4 0 1 -7 10 -16 9 -9 13 -19
10 -23 -4 -3 -19 8 -34 24 -30 34 -88 75 -76 54 5 -8 -7 1 -26 20 -19 19 -47
42 -64 53 -16 10 -27 18 -24 18 3 0 -19 25 -48 55 -29 30 -55 55 -57 55 -17 0
8 -41 54 -87 33 -35 50 -58 42 -61 -10 -3 -10 -7 -1 -18 6 -8 16 -11 21 -7 6
3 8 0 6 -8 -3 -8 -13 -13 -22 -11 -14 3 -15 0 -7 -16 5 -10 17 -24 25 -32 9
-7 16 -17 16 -22 0 -5 -14 4 -31 21 -36 37 -49 39 -49 9 0 -19 -2 -20 -12 -7
-7 8 -22 22 -32 29 -18 13 -19 13 -11 0 29 -52 45 -66 76 -68 19 -2 44 -9 56
-18 15 -9 23 -11 23 -3 0 8 4 8 15 -1 8 -6 18 -10 22 -7 4 3 22 -6 38 -20 17
-14 22 -23 13 -19 -10 3 -18 3 -18 -1 0 -9 83 -78 91 -76 4 1 13 -5 21 -14 11
-15 11 -16 -6 -10 -14 6 -17 4 -12 -8 3 -8 9 -22 12 -30 5 -11 2 -13 -10 -9
-11 4 -16 1 -16 -10 0 -10 -6 -13 -15 -10 -19 8 -19 -10 0 -26 8 -7 15 -17 15
-23 0 -6 -15 3 -33 21 -43 42 -54 41 -27 -3 l21 -35 -36 16 c-29 12 -40 12
-51 3 -11 -9 -23 -8 -54 6 -22 10 -37 22 -34 26 3 5 -2 9 -10 9 -9 0 -16 4
-16 9 0 5 -13 22 -29 37 -27 27 -32 43 -60 206 -17 97 -35 188 -41 202 -5 14
-12 51 -15 83 -3 32 -14 105 -25 163 -25 131 -48 310 -39 304 4 -2 10 -21 14
-41 4 -21 12 -44 18 -51 8 -10 7 -16 -2 -22 -10 -5 -4 -18 24 -49 21 -22 43
-41 50 -41 18 0 48 -37 40 -49 -3 -6 -3 -11 2 -11 4 0 16 -14 25 -31 11 -18
22 -27 29 -23 7 4 9 3 6 -2 -3 -5 3 -21 14 -34 20 -24 20 -24 14 -2 -11 40 10
23 34 -27 13 -27 29 -52 37 -55 7 -3 26 -28 43 -57 22 -39 36 -53 55 -55 22
-2 24 0 16 21 -5 14 -27 53 -50 88 -22 35 -40 70 -40 77 0 7 -8 38 -17 68
l-17 54 25 22 c31 27 28 39 -28 95 -45 46 -74 50 -32 5 l24 -27 -23 14 c-34
20 -112 127 -112 153 0 12 5 34 12 48 11 22 16 24 42 17 17 -5 40 -19 53 -31z
m517 -524 c15 -75 26 -138 23 -140 -6 -7 -45 111 -51 156 -14 100 -16 120 -8
120 4 0 20 -61 36 -136z m30 -309 c19 -60 38 -130 41 -155 6 -56 -71 164 -81
231 -10 66 0 46 40 -76z m-290 -50 c16 -25 11 -30 -18 -19 -17 6 -23 44 -7 44
5 0 16 -11 25 -25z m16 -65 c0 -5 -7 -10 -16 -10 -8 0 -12 5 -9 10 3 6 10 10
16 10 5 0 9 -4 9 -10z m-560 -200 c6 -41 13 -91 16 -110 4 -19 4 -33 1 -30 -7
6 -58 293 -56 313 2 21 28 -95 39 -173z m874 -7 c40 -107 83 -294 71 -312 -3
-6 9 -135 20 -193 3 -20 0 -28 -10 -28 -8 0 -15 -7 -15 -15 0 -8 6 -15 14 -15
13 0 28 -58 42 -167 5 -39 3 -53 -6 -53 -7 0 -10 6 -7 14 3 8 2 16 -3 18 -5 2
-21 57 -34 123 -14 66 -30 136 -36 155 -30 99 -105 616 -87 600 3 -3 26 -60
51 -127z m-632 -31 c90 -120 122 -182 99 -197 -11 -6 -131 128 -132 148 0 6
-4 33 -8 60 -4 26 -7 47 -5 47 1 0 22 -26 46 -58z m345 -5 c31 -21 42 -37 26
-37 -5 0 -30 21 -58 46 -48 44 -41 42 32 -9z m-560 -149 c-3 -8 -6 -5 -6 6 -1
11 2 17 5 13 3 -3 4 -12 1 -19z m147 -63 l6 -60 -15 60 c-17 73 -18 82 -5 69
5 -5 12 -36 14 -69z m-108 -122 c-5 -5 -36 122 -35 144 0 10 9 -18 20 -61 11
-43 18 -81 15 -83z m144 147 c0 -5 -5 -10 -11 -10 -5 0 -7 5 -4 10 3 6 8 10
11 10 2 0 4 -4 4 -10z m-23 -132 c-3 -7 -5 -2 -5 12 0 14 2 19 5 13 2 -7 2
-19 0 -25z m-52 -122 c0 -15 -4 -21 -9 -16 -5 5 -6 16 -3 24 9 22 12 20 12 -8z
m725 -271 c11 -13 10 -14 -4 -9 -9 3 -16 10 -16 15 0 13 6 11 20 -6z m154 -95
c7 -41 -8 -21 -18 25 -5 19 -4 26 2 20 5 -5 12 -26 16 -45z m-89 -10 c3 -5 1
-10 -4 -10 -6 0 -11 5 -11 10 0 6 2 10 4 10 3 0 8 -4 11 -10z"/>
<path d="M430 1819 c0 -5 4 -8 9 -4 5 3 16 -3 23 -12 7 -10 22 -25 33 -33 11
-8 4 3 -14 23 -35 37 -51 46 -51 26z"/>
<path d="M190 1680 c0 -33 14 -53 33 -48 12 2 11 9 -9 38 -23 33 -24 33 -24
10z"/>
<path d="M310 1649 c0 -5 5 -7 10 -4 6 3 10 8 10 11 0 2 -4 4 -10 4 -5 0 -10
-5 -10 -11z"/>
<path d="M504 1502 c-7 -4 1 -13 22 -23 35 -17 73 -8 45 10 -8 5 -20 7 -28 4
-7 -3 -13 0 -13 6 0 13 -10 14 -26 3z"/>
<path d="M335 1280 c-3 -5 -5 -10 -3 -11 2 0 17 -3 33 -5 29 -5 29 -4 10 10
-24 18 -32 19 -40 6z"/>
<path d="M466 1257 c3 -10 9 -15 12 -12 3 3 0 11 -7 18 -10 9 -11 8 -5 -6z"/>
<path d="M7222 2710 c0 -14 2 -19 5 -12 2 6 2 18 0 25 -3 6 -5 1 -5 -13z"/>
<path d="M2247 2705 c5 -15 3 -17 -13 -11 -12 5 -7 -5 16 -29 46 -48 87 -70
44 -24 -17 19 -30 39 -27 45 2 6 -3 17 -12 24 -13 11 -14 10 -8 -5z"/>
<path d="M0 2701 c0 -5 9 -7 20 -4 26 7 26 13 0 13 -11 0 -20 -4 -20 -9z"/>
<path d="M7231 2664 c0 -11 3 -14 6 -6 3 7 2 16 -1 19 -3 4 -6 -2 -5 -13z"/>
<path d="M2290 2667 c0 -2 15 -14 33 -27 20 -15 27 -17 18 -6 -13 16 -51 41
-51 33z"/>
<path d="M2428 2547 c26 -23 58 -51 71 -62 l24 -20 -11 21 c-15 29 -99 104
-116 104 -8 0 6 -19 32 -43z"/>
<path d="M1200 2539 c0 -17 11 -45 26 -65 28 -36 58 -47 48 -16 -4 9 3 4 14
-13 11 -16 38 -50 61 -75 31 -35 40 -41 41 -26 1 43 -87 151 -122 151 -4 0
-19 17 -33 38 -14 20 -28 37 -30 37 -3 0 -5 -14 -5 -31z"/>
<path d="M8746 2530 c3 -25 28 -124 54 -220 27 -96 52 -193 56 -215 4 -22 9
-35 11 -29 2 7 -3 42 -12 79 -8 37 -13 71 -10 76 8 11 -60 255 -85 311 l-20
43 6 -45z"/>
<path d="M8701 2484 c0 -11 3 -14 6 -6 3 7 2 16 -1 19 -3 4 -6 -2 -5 -13z"/>
<path d="M8711 2444 c0 -11 3 -14 6 -6 3 7 2 16 -1 19 -3 4 -6 -2 -5 -13z"/>
<path d="M8721 2404 c0 -11 3 -14 6 -6 3 7 2 16 -1 19 -3 4 -6 -2 -5 -13z"/>
<path d="M1290 2360 c6 -11 13 -20 16 -20 2 0 0 9 -6 20 -6 11 -13 20 -16 20
-2 0 0 -9 6 -20z"/>
<path d="M4684 2362 c3 -10 8 -36 10 -57 6 -59 173 -520 176 -484 0 4 -7 26
-15 50 -9 24 -13 49 -11 56 8 19 -146 453 -161 453 -2 0 -2 -8 1 -18z"/>
<path d="M5780 2326 c0 -3 9 -10 20 -16 11 -6 20 -8 20 -6 0 3 -9 10 -20 16
-11 6 -20 8 -20 6z"/>
<path d="M427 2304 c-5 -5 24 -78 36 -90 3 -3 3 5 1 18 -5 23 -5 23 10 -2 22
-36 19 -16 -4 30 -20 40 -33 53 -43 44z"/>
<path d="M8771 2214 c0 -11 3 -14 6 -6 3 7 2 16 -1 19 -3 4 -6 -2 -5 -13z"/>
<path d="M8196 2185 c-9 -26 -7 -32 5 -12 6 10 9 21 6 23 -2 3 -7 -2 -11 -11z"/>
<path d="M8781 2174 c0 -11 3 -14 6 -6 3 7 2 16 -1 19 -3 4 -6 -2 -5 -13z"/>
<path d="M5851 2144 c0 -11 3 -14 6 -6 3 7 2 16 -1 19 -3 4 -6 -2 -5 -13z"/>
<path d="M8240 2116 c-16 -25 -30 -49 -30 -54 0 -5 -10 -16 -23 -25 -12 -8
-35 -40 -51 -71 -17 -34 -33 -53 -40 -49 -8 5 -8 3 0 -8 5 -8 9 -24 8 -36 0
-13 3 -23 7 -23 5 0 9 -4 9 -10 0 -5 -8 -10 -18 -10 -10 0 -23 -5 -30 -12 -9
-9 -12 -9 -12 2 -1 8 -10 -2 -21 -23 -20 -37 -20 -37 0 -59 16 -17 21 -43 12
-65 -1 -1 -14 2 -30 7 -23 6 -31 5 -35 -7 -9 -23 -7 -30 4 -13 9 13 10 13 11
0 1 -8 1 -18 0 -22 0 -5 6 -8 14 -8 14 0 20 -19 15 -45 -9 -51 82 149 180 395
53 131 70 180 65 180 -2 0 -18 -20 -35 -44z"/>
<path d="M8171 2119 c-6 -18 -9 -34 -7 -36 2 -2 9 10 15 28 6 18 9 34 7 36 -2
2 -9 -10 -15 -28z"/>
<path d="M8791 2134 c0 -11 3 -14 6 -6 3 7 2 16 -1 19 -3 4 -6 -2 -5 -13z"/>
<path d="M2487 2119 c16 -32 67 -95 89 -112 42 -32 26 -3 -37 63 -33 36 -56
58 -52 49z"/>
<path d="M5861 2094 c0 -11 3 -14 6 -6 3 7 2 16 -1 19 -3 4 -6 -2 -5 -13z"/>
<path d="M5871 2044 c0 -11 3 -14 6 -6 3 7 2 16 -1 19 -3 4 -6 -2 -5 -13z"/>
<path d="M8872 2030 c0 -14 2 -19 5 -12 2 6 2 18 0 25 -3 6 -5 1 -5 -13z"/>
<path d="M3207 1992 c20 -37 41 -58 49 -49 3 3 -11 23 -31 44 l-37 38 19 -33z"/>
<path d="M8881 1984 c0 -11 3 -14 6 -6 3 7 2 16 -1 19 -3 4 -6 -2 -5 -13z"/>
<path d="M2078 1932 c13 -17 28 -35 34 -39 7 -3 2 8 -10 25 -13 17 -28 35 -34
39 -7 3 -2 -8 10 -25z"/>
<path d="M5841 1944 c0 -11 3 -14 6 -6 3 7 2 16 -1 19 -3 4 -6 -2 -5 -13z"/>
<path d="M3270 1924 c0 -25 61 -133 86 -153 12 -9 33 -39 48 -67 14 -27 45
-79 68 -115 24 -36 61 -94 83 -129 22 -34 69 -101 104 -149 75 -99 181 -258
234 -349 33 -56 216 -302 255 -342 8 -8 2 7 -13 33 -15 26 -25 50 -22 53 6 6
125 -164 169 -243 17 -32 64 -105 103 -163 38 -58 86 -136 105 -174 40 -79 66
-93 75 -42 8 38 -36 141 -119 281 -29 50 -66 114 -82 142 -42 76 -186 280
-279 396 -44 54 -111 140 -150 191 -38 51 -99 128 -135 172 -36 43 -87 109
-113 147 -27 37 -50 67 -53 67 -3 0 -2 -5 2 -12 4 -7 3 -8 -5 -4 -6 4 -9 11
-6 17 3 5 -12 35 -33 66 -40 58 -56 79 -116 143 -18 19 -49 62 -70 94 -42 65
-117 156 -128 156 -5 0 -8 -7 -8 -16z m330 -406 c15 -21 17 -28 6 -19 -16 13
-41 51 -33 51 2 0 14 -15 27 -32z"/>
<path d="M2325 1881 c-3 -5 -1 -12 5 -16 5 -3 10 1 10 9 0 18 -6 21 -15 7z"/>
<path d="M2152 1836 c96 -129 210 -276 215 -276 8 0 -83 125 -165 228 -76 96
-106 125 -50 48z"/>
<path d="M5927 1850 c6 -22 21 -35 29 -27 7 7 -15 47 -25 47 -5 0 -7 -9 -4
-20z"/>
<path d="M2360 1833 c5 -10 30 -45 55 -78 24 -33 61 -84 81 -112 20 -29 39
-53 41 -53 14 0 -121 201 -140 209 -4 2 -12 14 -17 27 -5 13 -14 24 -20 24 -7
0 -8 -5 0 -17z"/>
<path d="M8651 1812 c-1 -35 -5 -45 -21 -49 -10 -3 -22 -14 -25 -24 -4 -11
-11 -17 -16 -14 -10 7 -12 -57 -3 -92 4 -13 13 -23 20 -23 8 0 14 -9 14 -21 0
-14 -5 -19 -14 -16 -28 11 -35 -60 -26 -268 16 -375 12 -571 -19 -865 -6 -51
-6 -86 0 -88 5 -2 9 -10 9 -18 0 -8 4 -14 9 -14 20 0 31 100 42 360 6 151 13
290 15 308 5 35 20 43 27 15 9 -42 19 397 13 557 -8 188 -22 334 -25 252z"/>
<path d="M911 1830 c-2 -40 52 -279 79 -357 17 -48 36 -115 42 -148 5 -33 17
-76 24 -95 8 -19 14 -55 13 -80 -1 -29 8 -65 24 -101 14 -31 51 -130 82 -220
35 -102 92 -236 150 -354 88 -179 121 -270 162 -452 5 -20 12 -23 55 -23 47 0
50 1 44 23 -3 12 -17 65 -31 117 -30 114 -28 142 3 43 13 -40 33 -80 47 -93
l25 -24 -6 35 -6 34 17 -24 c15 -20 24 -23 62 -18 l44 5 25 -49 c24 -49 25
-49 74 -49 28 0 50 2 50 5 0 3 -14 33 -31 66 -16 33 -34 73 -40 87 l-9 27 18
-24 c14 -17 21 -20 27 -11 8 13 62 -41 112 -112 l26 -38 524 0 c481 0 525 1
519 16 -6 15 -4 15 18 0 22 -14 71 -16 396 -16 l371 0 -89 61 c-100 67 -226
171 -472 389 -218 194 -396 342 -560 469 -257 199 -336 266 -475 406 -126 126
-161 164 -210 230 -8 12 -14 15 -15 7 0 -20 -36 3 -100 63 -88 82 -127 104
-117 65 6 -25 2 -25 -35 1 -30 22 -30 22 -24 2 5 -16 1 -22 -16 -26 -18 -5
-20 -9 -10 -19 16 -16 15 -28 -2 -28 -11 0 -14 -10 -10 -44 3 -31 0 -47 -11
-56 -8 -7 -15 -21 -15 -31 0 -34 -20 -30 -68 15 -40 38 -50 43 -67 34 -11 -6
-24 -17 -28 -24 -11 -19 -48 -38 -45 -23 2 6 -7 15 -19 20 -27 10 -27 9 -9
-36 14 -33 14 -35 -19 -63 l-33 -30 34 -53 c66 -106 114 -188 114 -194 0 -4
-7 -4 -16 -1 -12 5 -11 -2 6 -29 19 -30 20 -36 6 -41 -11 -4 -13 -11 -7 -22 9
-17 14 -52 12 -86 -1 -11 -6 -16 -15 -13 -7 3 -20 -3 -29 -14 -9 -10 -20 -19
-24 -19 -5 0 -33 42 -64 93 -47 78 -97 194 -124 286 -25 83 -160 271 -185 256
-14 -9 -40 33 -104 166 -36 73 -65 127 -65 119z m1390 -587 c13 -16 12 -17 -3
-4 -17 13 -22 21 -14 21 2 0 10 -8 17 -17z m-983 -168 c-3 -3 -9 2 -12 12 -6
14 -5 15 5 6 7 -7 10 -15 7 -18z m1352 -510 c0 -5 -5 -3 -10 5 -5 8 -10 20
-10 25 0 6 5 3 10 -5 5 -8 10 -19 10 -25z m-895 -295 c8 -16 15 -32 15 -37 0
-10 -25 27 -33 50 -10 27 1 20 18 -13z"/>
<path d="M5981 1811 c-11 -7 -10 -11 7 -20 17 -9 19 -8 15 9 -3 11 -6 20 -7
20 0 0 -7 -4 -15 -9z"/>
<path d="M2350 1676 c0 -2 8 -10 18 -17 15 -13 16 -12 3 4 -13 16 -21 21 -21
13z"/>
<path d="M2400 1610 c12 -16 24 -30 26 -30 3 0 -4 14 -16 30 -12 17 -24 30
-26 30 -3 0 4 -13 16 -30z"/>
<path d="M2926 1542 c10 -18 29 -45 42 -60 l23 -27 -16 30 c-9 17 -28 44 -42
60 l-25 30 18 -33z"/>
<path d="M3430 1301 c0 -15 42 -76 126 -188 102 -134 225 -321 228 -345 2 -13
32 -66 68 -118 36 -52 78 -119 94 -149 15 -29 30 -48 32 -42 2 6 8 9 13 5 5
-3 9 -2 9 2 0 16 -74 141 -124 208 -29 39 -105 150 -170 246 -201 298 -276
402 -276 381z m550 -826 c0 -5 -5 -3 -10 5 -5 8 -10 20 -10 25 0 6 5 3 10 -5
5 -8 10 -19 10 -25z"/>
<path d="M6902 1275 c0 -16 2 -22 5 -12 2 9 2 23 0 30 -3 6 -5 -1 -5 -18z"/>
<path d="M6911 1144 c0 -11 3 -14 6 -6 3 7 2 16 -1 19 -3 4 -6 -2 -5 -13z"/>
<path d="M7632 830 c0 -8 4 -26 8 -40 6 -20 8 -21 8 -5 0 11 -3 29 -8 40 -5
12 -8 14 -8 5z"/>
<path d="M7651 744 c0 -11 3 -14 6 -6 3 7 2 16 -1 19 -3 4 -6 -2 -5 -13z"/>
<path d="M7661 704 c0 -11 3 -14 6 -6 3 7 2 16 -1 19 -3 4 -6 -2 -5 -13z"/>
<path d="M331 604 c0 -11 3 -14 6 -6 3 7 2 16 -1 19 -3 4 -6 -2 -5 -13z"/>
<path d="M4214 495 c8 -16 22 -39 31 -50 15 -19 15 -18 1 10 -8 17 -22 39 -31
50 -15 19 -15 18 -1 -10z"/>
<path d="M4167 320 c5 -8 38 -84 73 -167 l62 -153 50 0 c27 0 47 3 45 8 -45
83 -140 221 -184 267 -31 33 -52 53 -46 45z"/>
<path d="M930 120 c-8 -5 -10 -10 -5 -10 6 0 17 5 25 10 8 5 11 10 5 10 -5 0
-17 -5 -25 -10z"/>
</g>
</svg>
