<?xml version="1.0" encoding="us-ascii" standalone="no"?><svg xmlns="http://www.w3.org/2000/svg" xmlns:xlink="http://www.w3.org/1999/xlink" contentStyleType="text/css" height="522px" preserveAspectRatio="none" style="width:769px;height:522px;background:#FFFFFF;" version="1.1" viewBox="0 0 769 522" width="769px" zoomAndPan="magnify"><defs/><g><!--cluster controllers--><g id="cluster_controllers"><path d="M8.5,129 L95.5,129 A3.75,3.75 0 0 1 98,131.5 L105,151.2969 L759.5,151.2969 A2.5,2.5 0 0 1 762,153.7969 L762,512.77 A2.5,2.5 0 0 1 759.5,515.27 L8.5,515.27 A2.5,2.5 0 0 1 6,512.77 L6,131.5 A2.5,2.5 0 0 1 8.5,129 " fill="none" style="stroke:#000000;stroke-width:1.5;"/><line style="stroke:#000000;stroke-width:1.5;" x1="6" x2="105" y1="151.2969" y2="151.2969"/><text fill="#000000" font-family="sans-serif" font-size="14" font-weight="bold" lengthAdjust="spacing" textLength="86" x="10" y="143.9951">controllers</text></g><!--cluster djframework--><g id="cluster_djframework"><path d="M320.5,6 L421.5,6 A3.75,3.75 0 0 1 424,8.5 L431,28.2969 L447.5,28.2969 A2.5,2.5 0 0 1 450,30.7969 L450,102.5 A2.5,2.5 0 0 1 447.5,105 L320.5,105 A2.5,2.5 0 0 1 318,102.5 L318,8.5 A2.5,2.5 0 0 1 320.5,6 " fill="none" style="stroke:#000000;stroke-width:1.5;"/><line style="stroke:#000000;stroke-width:1.5;" x1="318" x2="431" y1="28.2969" y2="28.2969"/><text fill="#000000" font-family="sans-serif" font-size="14" font-weight="bold" lengthAdjust="spacing" textLength="100" x="322" y="20.9951">djframework</text></g><!--class BaseController--><g id="elem_BaseController"><rect codeLine="2" fill="#F1F1F1" height="64.2969" id="BaseController" rx="2.5" ry="2.5" style="stroke:#181818;stroke-width:0.5;" width="167" x="300.5" y="164"/><ellipse cx="330.35" cy="180" fill="#7FFFD4" rx="11" ry="11" style="stroke:#181818;stroke-width:1.0;"/><path d="M329.8344,180.5625 Q327.975,179.8594 327.3188,179.0938 Q326.6781,178.3125 326.6781,177 Q326.6781,175.3125 327.7563,174.3438 Q328.8344,173.375 330.7094,173.375 Q331.5688,173.375 332.4125,173.5781 Q333.2719,173.7656 334.1156,174.1563 L334.1156,176.5469 Q333.3344,175.9844 332.5063,175.7031 Q331.6938,175.4063 330.8969,175.4063 Q330.0219,175.4063 329.5375,175.7656 Q329.0688,176.125 329.0688,176.7813 Q329.0688,177.2969 329.4125,177.6406 Q329.7563,177.9688 330.85,178.375 L331.9125,178.7813 Q333.3969,179.3281 334.1,180.2344 Q334.8188,181.1406 334.8188,182.5156 Q334.8188,184.3906 333.7094,185.3125 Q332.6,186.2344 330.35,186.2344 Q329.4281,186.2344 328.5063,186.0156 Q327.5844,185.7969 326.725,185.375 L326.725,182.8438 Q327.6938,183.5313 328.6156,183.875 Q329.5375,184.2188 330.4281,184.2188 Q331.3344,184.2188 331.8344,183.8125 Q332.3344,183.3906 332.3344,182.6563 Q332.3344,182.0938 331.9906,181.6875 Q331.6625,181.2656 331.0375,181.0156 L329.8344,180.5625 Z " fill="#000000"/><text fill="#000000" font-family="sans-serif" font-size="14" lengthAdjust="spacing" textLength="102" x="347.65" y="184.8467">BaseController</text><line style="stroke:#181818;stroke-width:0.5;" x1="301.5" x2="466.5" y1="196" y2="196"/><ellipse cx="311.5" cy="209.6484" fill="none" rx="3" ry="3" style="stroke:#038048;stroke-width:1.0;"/><text fill="#000000" font-family="sans-serif" font-size="14" lengthAdjust="spacing" textLength="141" x="320.5" y="212.9951">Svr services.Servicer</text><line style="stroke:#181818;stroke-width:0.5;" x1="301.5" x2="466.5" y1="220.2969" y2="220.2969"/></g><!--class RuleController--><g id="elem_RuleController"><rect codeLine="6" fill="#F1F1F1" height="210.9688" id="RuleController" rx="2.5" ry="2.5" style="stroke:#181818;stroke-width:0.5;" width="725" x="21.5" y="288.3"/><ellipse cx="330.75" cy="304.3" fill="#7FFFD4" rx="11" ry="11" style="stroke:#181818;stroke-width:1.0;"/><path d="M330.2344,304.8625 Q328.375,304.1594 327.7188,303.3937 Q327.0781,302.6125 327.0781,301.3 Q327.0781,299.6125 328.1563,298.6437 Q329.2344,297.675 331.1094,297.675 Q331.9688,297.675 332.8125,297.8781 Q333.6719,298.0656 334.5156,298.4562 L334.5156,300.8469 Q333.7344,300.2844 332.9063,300.0031 Q332.0938,299.7062 331.2969,299.7062 Q330.4219,299.7062 329.9375,300.0656 Q329.4688,300.425 329.4688,301.0812 Q329.4688,301.5969 329.8125,301.9406 Q330.1563,302.2687 331.25,302.675 L332.3125,303.0812 Q333.7969,303.6281 334.5,304.5344 Q335.2188,305.4406 335.2188,306.8156 Q335.2188,308.6906 334.1094,309.6125 Q333,310.5344 330.75,310.5344 Q329.8281,310.5344 328.9063,310.3156 Q327.9844,310.0969 327.125,309.675 L327.125,307.1437 Q328.0938,307.8312 329.0156,308.175 Q329.9375,308.5187 330.8281,308.5187 Q331.7344,308.5187 332.2344,308.1125 Q332.7344,307.6906 332.7344,306.9562 Q332.7344,306.3937 332.3906,305.9875 Q332.0625,305.5656 331.4375,305.3156 L330.2344,304.8625 Z " fill="#000000"/><text fill="#000000" font-family="sans-serif" font-size="14" lengthAdjust="spacing" textLength="98" x="351.25" y="309.1467">RuleController</text><line style="stroke:#181818;stroke-width:0.5;" x1="22.5" x2="745.5" y1="320.3" y2="320.3"/><line style="stroke:#181818;stroke-width:0.5;" x1="22.5" x2="745.5" y1="328.3" y2="328.3"/><rect fill="#F24D5C" height="6" style="stroke:#C82930;stroke-width:1.0;" width="6" x="29.5" y="338.9484"/><text fill="#000000" font-family="sans-serif" font-size="14" lengthAdjust="spacing" textLength="356" x="41.5" y="345.2951">handleProcess(httpMethod string) (int, string, error)</text><rect fill="#F24D5C" height="6" style="stroke:#C82930;stroke-width:1.0;" width="6" x="29.5" y="355.2453"/><text fill="#000000" font-family="sans-serif" font-size="14" lengthAdjust="spacing" textLength="699" x="41.5" y="361.592">logicProcess(req string, param string, rawQuery string, reqBody string, cookie string) (int, string, error)</text><rect fill="#F24D5C" height="6" style="stroke:#C82930;stroke-width:1.0;" width="6" x="29.5" y="371.5422"/><text fill="#000000" font-family="sans-serif" font-size="14" lengthAdjust="spacing" textLength="261" x="41.5" y="377.8889">judge(param string, ret int) (int, string)</text><text fill="#000000" font-family="sans-serif" font-size="14" lengthAdjust="spacing" textLength="4" x="41.5" y="394.1857">&#160;</text><ellipse cx="32.5" cy="407.1359" fill="#84BE84" rx="3" ry="3" style="stroke:#038048;stroke-width:1.0;"/><text fill="#000000" font-family="sans-serif" font-size="14" lengthAdjust="spacing" textLength="64" x="41.5" y="410.4826">Prepare()</text><ellipse cx="32.5" cy="423.4328" fill="#84BE84" rx="3" ry="3" style="stroke:#038048;stroke-width:1.0;"/><text fill="#000000" font-family="sans-serif" font-size="14" lengthAdjust="spacing" textLength="35" x="41.5" y="426.7795">Get()</text><ellipse cx="32.5" cy="439.7297" fill="#84BE84" rx="3" ry="3" style="stroke:#038048;stroke-width:1.0;"/><text fill="#000000" font-family="sans-serif" font-size="14" lengthAdjust="spacing" textLength="41" x="41.5" y="443.0764">Post()</text><ellipse cx="32.5" cy="456.0266" fill="#84BE84" rx="3" ry="3" style="stroke:#038048;stroke-width:1.0;"/><text fill="#000000" font-family="sans-serif" font-size="14" lengthAdjust="spacing" textLength="46" x="41.5" y="459.3732">Head()</text><ellipse cx="32.5" cy="472.3234" fill="#84BE84" rx="3" ry="3" style="stroke:#038048;stroke-width:1.0;"/><text fill="#000000" font-family="sans-serif" font-size="14" lengthAdjust="spacing" textLength="354" x="41.5" y="475.6701">Response(iErrCode int, sMsg string, sType ...string)</text><ellipse cx="32.5" cy="488.6203" fill="#84BE84" rx="3" ry="3" style="stroke:#038048;stroke-width:1.0;"/><text fill="#000000" font-family="sans-serif" font-size="14" lengthAdjust="spacing" textLength="307" x="41.5" y="491.967">ResponseExt(iErrCode int, sMsg string, mExt</text><text fill="#0000FF" font-family="sans-serif" font-size="14" lengthAdjust="spacing" textLength="30" x="352.5" y="491.967">map</text><text fill="#000000" font-family="sans-serif" font-size="14" lengthAdjust="spacing" textLength="186" x="382.5" y="491.967">[string]string, sType string)</text></g><!--class Controller--><g id="elem_Controller"><rect fill="#F1F1F1" height="48" id="Controller" rx="2.5" ry="2.5" style="stroke:#181818;stroke-width:0.5;" width="99" x="334.5" y="41"/><ellipse cx="349.5" cy="57" fill="#ADD1B2" rx="11" ry="11" style="stroke:#181818;stroke-width:1.0;"/><path d="M352.4688,62.6406 Q351.8906,62.9375 351.25,63.0781 Q350.6094,63.2344 349.9063,63.2344 Q347.4063,63.2344 346.0781,61.5938 Q344.7656,59.9375 344.7656,56.8125 Q344.7656,53.6875 346.0781,52.0313 Q347.4063,50.375 349.9063,50.375 Q350.6094,50.375 351.25,50.5313 Q351.9063,50.6875 352.4688,50.9844 L352.4688,53.7031 Q351.8438,53.125 351.25,52.8594 Q350.6563,52.5781 350.0313,52.5781 Q348.6875,52.5781 348,53.6563 Q347.3125,54.7188 347.3125,56.8125 Q347.3125,58.9063 348,59.9844 Q348.6875,61.0469 350.0313,61.0469 Q350.6563,61.0469 351.25,60.7813 Q351.8438,60.5 352.4688,59.9219 L352.4688,62.6406 Z " fill="#000000"/><text fill="#000000" font-family="sans-serif" font-size="14" lengthAdjust="spacing" textLength="67" x="363.5" y="61.8467">Controller</text><line style="stroke:#181818;stroke-width:0.5;" x1="335.5" x2="432.5" y1="73" y2="73"/><line style="stroke:#181818;stroke-width:0.5;" x1="335.5" x2="432.5" y1="81" y2="81"/></g><!--reverse link Controller to BaseController--><g id="link_Controller_BaseController"><path codeLine="20" d="M384,101.39 C384,122.18 384,140.75 384,163.68 " fill="none" id="Controller-backto-BaseController" style="stroke:#181818;stroke-width:1.0;"/><polygon fill="#181818" points="384,89.39,380,95.39,384,101.39,388,95.39,384,89.39" style="stroke:#181818;stroke-width:1.0;"/></g><!--reverse link BaseController to RuleController--><g id="link_BaseController_RuleController"><path codeLine="21" d="M384,240.58 C384,257.11 384,266.42 384,288.18 " fill="none" id="BaseController-backto-RuleController" style="stroke:#181818;stroke-width:1.0;"/><polygon fill="#181818" points="384,228.58,380,234.58,384,240.58,388,234.58,384,228.58" style="stroke:#181818;stroke-width:1.0;"/></g><!--SRC=[bL9DJy904BttLqnwQXNg7wXDX12za5JmPZoitQ4KjfrsTWiImtzt4UW76g9xwhnvRzvszXKYHrsA126XmZ0fXQpXqm5x4YMqXf7GE6vw48RWpGSFLIromLc1FaJHYNyujp3VC6ZaJPQW3kR73tQ-2VlEs5cj_Z5s24jHI8KnanshlQKnvHJDaYHeO_cf3rvMcC6f6W0o4_iTlQ8qIyvongfXbe95tbGijiyrygu5i1gHREk4Q9tXNrrNjKpHkx100rRLr_fEPuKnevMWvqC7V4JJ1sBI5yWJ2jb7PlPngT3ePHFcCKc4e-TKfyrzzCkkH0Y2uFnFl-Wd7-RQYDps8LpOvxJxKSJtxwh6A1TbU7S0ezSZyQrlsVYTmh5tNBbQs5NXbdWTjEbmuMOu1BUJqA2VIjUvrlofxeVF_G80]--></g></svg>