<?xml version="1.0" encoding="us-ascii" standalone="no"?><svg xmlns="http://www.w3.org/2000/svg" xmlns:xlink="http://www.w3.org/1999/xlink" contentStyleType="text/css" height="768px" preserveAspectRatio="none" style="width:882px;height:768px;background:#FFFFFF;" version="1.1" viewBox="0 0 882 768" width="882px" zoomAndPan="magnify"><defs/><g><!--cluster services--><g id="cluster_services"><path d="M8.5,6 L76.5,6 A3.75,3.75 0 0 1 79,8.5 L86,28.2969 L859.5,28.2969 A2.5,2.5 0 0 1 862,30.7969 L862,758.52 A2.5,2.5 0 0 1 859.5,761.02 L8.5,761.02 A2.5,2.5 0 0 1 6,758.52 L6,8.5 A2.5,2.5 0 0 1 8.5,6 " fill="none" style="stroke:#000000;stroke-width:1.5;"/><line style="stroke:#000000;stroke-width:1.5;" x1="6" x2="86" y1="28.2969" y2="28.2969"/><text fill="#000000" font-family="sans-serif" font-size="14" font-weight="bold" lengthAdjust="spacing" textLength="67" x="10" y="20.9951">services</text></g><!--class DjcBaseService--><g id="elem_DjcBaseService"><rect codeLine="2" fill="#F1F1F1" height="194.6719" id="DjcBaseService" rx="2.5" ry="2.5" style="stroke:#181818;stroke-width:0.5;" width="778" x="26" y="181.6"/><ellipse cx="357.25" cy="197.6" fill="#7FFFD4" rx="11" ry="11" style="stroke:#181818;stroke-width:1.0;"/><path d="M356.7344,198.1625 Q354.875,197.4594 354.2188,196.6938 Q353.5781,195.9125 353.5781,194.6 Q353.5781,192.9125 354.6563,191.9438 Q355.7344,190.975 357.6094,190.975 Q358.4688,190.975 359.3125,191.1781 Q360.1719,191.3656 361.0156,191.7563 L361.0156,194.1469 Q360.2344,193.5844 359.4063,193.3031 Q358.5938,193.0063 357.7969,193.0063 Q356.9219,193.0063 356.4375,193.3656 Q355.9688,193.725 355.9688,194.3813 Q355.9688,194.8969 356.3125,195.2406 Q356.6563,195.5688 357.75,195.975 L358.8125,196.3813 Q360.2969,196.9281 361,197.8344 Q361.7188,198.7406 361.7188,200.1156 Q361.7188,201.9906 360.6094,202.9125 Q359.5,203.8344 357.25,203.8344 Q356.3281,203.8344 355.4063,203.6156 Q354.4844,203.3969 353.625,202.975 L353.625,200.4438 Q354.5938,201.1313 355.5156,201.475 Q356.4375,201.8188 357.3281,201.8188 Q358.2344,201.8188 358.7344,201.4125 Q359.2344,200.9906 359.2344,200.2563 Q359.2344,199.6938 358.8906,199.2875 Q358.5625,198.8656 357.9375,198.6156 L356.7344,198.1625 Z " fill="#000000"/><text fill="#000000" font-family="sans-serif" font-size="14" lengthAdjust="spacing" textLength="107" x="377.75" y="202.4467">DjcBaseService</text><line style="stroke:#181818;stroke-width:0.5;" x1="27" x2="803" y1="213.6" y2="213.6"/><rect fill="none" height="6" style="stroke:#C82930;stroke-width:1.0;" width="6" x="34" y="224.2484"/><text fill="#000000" font-family="sans-serif" font-size="14" lengthAdjust="spacing" textLength="77" x="46" y="230.5951">errCode int</text><rect fill="none" height="6" style="stroke:#C82930;stroke-width:1.0;" width="6" x="34" y="240.5453"/><text fill="#000000" font-family="sans-serif" font-size="14" lengthAdjust="spacing" textLength="91" x="46" y="246.892">errMsg string</text><rect fill="none" height="6" style="stroke:#C82930;stroke-width:1.0;" width="6" x="34" y="256.8422"/><text fill="#000000" font-family="sans-serif" font-size="14" lengthAdjust="spacing" textLength="87" x="46" y="263.1889">errInfo string</text><rect fill="none" height="6" style="stroke:#C82930;stroke-width:1.0;" width="6" x="34" y="273.1391"/><text fill="#000000" font-family="sans-serif" font-size="14" lengthAdjust="spacing" textLength="21" x="46" y="279.4857">ext</text><text fill="#0000FF" font-family="sans-serif" font-size="14" lengthAdjust="spacing" textLength="30" x="71" y="279.4857">map</text><text fill="#000000" font-family="sans-serif" font-size="14" lengthAdjust="spacing" textLength="88" x="101" y="279.4857">[string]string</text><rect fill="none" height="6" style="stroke:#C82930;stroke-width:1.0;" width="6" x="34" y="289.4359"/><text fill="#000000" font-family="sans-serif" font-size="14" lengthAdjust="spacing" textLength="61" x="46" y="295.7826">appID int</text><rect fill="none" height="6" style="stroke:#C82930;stroke-width:1.0;" width="6" x="34" y="305.7328"/><text fill="#000000" font-family="sans-serif" font-size="14" lengthAdjust="spacing" textLength="12" x="46" y="312.0795">...</text><line style="stroke:#181818;stroke-width:0.5;" x1="27" x2="803" y1="319.3813" y2="319.3813"/><ellipse cx="37" cy="333.0297" fill="#84BE84" rx="3" ry="3" style="stroke:#038048;stroke-width:1.0;"/><text fill="#000000" font-family="sans-serif" font-size="14" lengthAdjust="spacing" textLength="56" x="46" y="336.3764">GetExt()</text><text fill="#0000FF" font-family="sans-serif" font-size="14" lengthAdjust="spacing" textLength="30" x="106" y="336.3764">map</text><text fill="#000000" font-family="sans-serif" font-size="14" lengthAdjust="spacing" textLength="88" x="136" y="336.3764">[string]string</text><ellipse cx="37" cy="349.3266" fill="#84BE84" rx="3" ry="3" style="stroke:#038048;stroke-width:1.0;"/><text fill="#000000" font-family="sans-serif" font-size="14" lengthAdjust="spacing" textLength="752" x="46" y="352.6732">Process(sRequestURI string, sParam string, rawQuery string, reqBody string, sCookie string) (int, string, error)</text><ellipse cx="37" cy="365.6234" fill="#84BE84" rx="3" ry="3" style="stroke:#038048;stroke-width:1.0;"/><text fill="#000000" font-family="sans-serif" font-size="14" lengthAdjust="spacing" textLength="437" x="46" y="368.9701">CheckParam(sParam string, rawQuery string, reqBody string) int</text></g><!--class DjcRuleService--><g id="elem_DjcRuleService"><rect codeLine="15" fill="#F1F1F1" height="308.75" id="DjcRuleService" rx="2.5" ry="2.5" style="stroke:#181818;stroke-width:0.5;" width="824" x="22" y="436.27"/><ellipse cx="378.25" cy="452.27" fill="#7FFFD4" rx="11" ry="11" style="stroke:#181818;stroke-width:1.0;"/><path d="M377.7344,452.8325 Q375.875,452.1294 375.2188,451.3638 Q374.5781,450.5825 374.5781,449.27 Q374.5781,447.5825 375.6563,446.6138 Q376.7344,445.645 378.6094,445.645 Q379.4688,445.645 380.3125,445.8481 Q381.1719,446.0356 382.0156,446.4263 L382.0156,448.8169 Q381.2344,448.2544 380.4063,447.9731 Q379.5938,447.6763 378.7969,447.6763 Q377.9219,447.6763 377.4375,448.0356 Q376.9688,448.395 376.9688,449.0513 Q376.9688,449.5669 377.3125,449.9106 Q377.6563,450.2388 378.75,450.645 L379.8125,451.0513 Q381.2969,451.5981 382,452.5044 Q382.7188,453.4106 382.7188,454.7856 Q382.7188,456.6606 381.6094,457.5825 Q380.5,458.5044 378.25,458.5044 Q377.3281,458.5044 376.4063,458.2856 Q375.4844,458.0669 374.625,457.645 L374.625,455.1138 Q375.5938,455.8013 376.5156,456.145 Q377.4375,456.4888 378.3281,456.4888 Q379.2344,456.4888 379.7344,456.0825 Q380.2344,455.6606 380.2344,454.9263 Q380.2344,454.3638 379.8906,453.9575 Q379.5625,453.5356 378.9375,453.2856 L377.7344,452.8325 Z " fill="#000000"/><text fill="#000000" font-family="sans-serif" font-size="14" lengthAdjust="spacing" textLength="103" x="398.75" y="457.1167">DjcRuleService</text><line style="stroke:#181818;stroke-width:0.5;" x1="23" x2="845" y1="468.27" y2="468.27"/><rect fill="none" height="6" style="stroke:#C82930;stroke-width:1.0;" width="6" x="30" y="478.9184"/><text fill="#000000" font-family="sans-serif" font-size="14" lengthAdjust="spacing" textLength="148" x="42" y="485.2651">rt *djruntime.Runtime</text><rect fill="none" height="6" style="stroke:#C82930;stroke-width:1.0;" width="6" x="30" y="495.2153"/><text fill="#000000" font-family="sans-serif" font-size="14" lengthAdjust="spacing" textLength="126" x="42" y="501.562">checker rule.Ruler</text><rect fill="none" height="6" style="stroke:#C82930;stroke-width:1.0;" width="6" x="30" y="511.5122"/><text fill="#000000" font-family="sans-serif" font-size="14" lengthAdjust="spacing" textLength="64" x="42" y="517.8589">uid string</text><rect fill="none" height="6" style="stroke:#C82930;stroke-width:1.0;" width="6" x="30" y="527.8091"/><text fill="#000000" font-family="sans-serif" font-size="14" lengthAdjust="spacing" textLength="12" x="42" y="534.1557">...</text><line style="stroke:#181818;stroke-width:0.5;" x1="23" x2="845" y1="541.4575" y2="541.4575"/><rect fill="#F24D5C" height="6" style="stroke:#C82930;stroke-width:1.0;" width="6" x="30" y="552.1059"/><text fill="#000000" font-family="sans-serif" font-size="14" lengthAdjust="spacing" textLength="101" x="42" y="558.4526">ruleCheck() int</text><rect fill="#F24D5C" height="6" style="stroke:#C82930;stroke-width:1.0;" width="6" x="30" y="568.4028"/><text fill="#000000" font-family="sans-serif" font-size="14" lengthAdjust="spacing" textLength="301" x="42" y="574.7495">getLuckyInfo(param string, cookie string) int</text><rect fill="#F24D5C" height="6" style="stroke:#C82930;stroke-width:1.0;" width="6" x="30" y="584.6997"/><text fill="#000000" font-family="sans-serif" font-size="14" lengthAdjust="spacing" textLength="320" x="42" y="591.0464">getDcLuckyInfo(param string, cookie string) int</text><rect fill="#F24D5C" height="6" style="stroke:#C82930;stroke-width:1.0;" width="6" x="30" y="600.9966"/><text fill="#000000" font-family="sans-serif" font-size="14" lengthAdjust="spacing" textLength="798" x="42" y="607.3432">signAndDecodeParam(param string, rawQuery string, reqBody string, reqParam *QueryInnerParam) (string, int, error)</text><rect fill="#F24D5C" height="6" style="stroke:#C82930;stroke-width:1.0;" width="6" x="30" y="617.2934"/><text fill="#000000" font-family="sans-serif" font-size="14" lengthAdjust="spacing" textLength="273" x="42" y="623.6401">checkMustField(sTempParam string) int</text><rect fill="#F24D5C" height="6" style="stroke:#C82930;stroke-width:1.0;" width="6" x="30" y="633.5903"/><text fill="#000000" font-family="sans-serif" font-size="14" lengthAdjust="spacing" textLength="136" x="42" y="639.937">createRule(mParam</text><text fill="#0000FF" font-family="sans-serif" font-size="14" lengthAdjust="spacing" textLength="30" x="182" y="639.937">map</text><text fill="#000000" font-family="sans-serif" font-size="14" lengthAdjust="spacing" textLength="199" x="212" y="639.937">[string]any) (rule.Ruler, error)</text><rect fill="#F24D5C" height="6" style="stroke:#C82930;stroke-width:1.0;" width="6" x="30" y="649.8872"/><text fill="#000000" font-family="sans-serif" font-size="14" lengthAdjust="spacing" textLength="112" x="42" y="656.2339">setTips(mParam</text><text fill="#0000FF" font-family="sans-serif" font-size="14" lengthAdjust="spacing" textLength="30" x="158" y="656.2339">map</text><text fill="#000000" font-family="sans-serif" font-size="14" lengthAdjust="spacing" textLength="348" x="188" y="656.2339">[string]any, pRule rule.Ruler, sGoodsName *string)</text><rect fill="#F24D5C" height="6" style="stroke:#C82930;stroke-width:1.0;" width="6" x="30" y="666.1841"/><text fill="#000000" font-family="sans-serif" font-size="14" lengthAdjust="spacing" textLength="395" x="42" y="672.5307">handleRule(ruleConfig *InnerRuleConfig, goods string) int</text><text fill="#000000" font-family="sans-serif" font-size="14" lengthAdjust="spacing" textLength="4" x="42" y="688.8276">&#160;</text><ellipse cx="33" cy="701.7778" fill="#84BE84" rx="3" ry="3" style="stroke:#038048;stroke-width:1.0;"/><text fill="#000000" font-family="sans-serif" font-size="14" lengthAdjust="spacing" textLength="721" x="42" y="705.1245">Process(requestURI string, param string, rawQuery string, reqBody string, cookie string) (int, string, error)</text><ellipse cx="33" cy="718.0747" fill="#84BE84" rx="3" ry="3" style="stroke:#038048;stroke-width:1.0;"/><text fill="#000000" font-family="sans-serif" font-size="14" lengthAdjust="spacing" textLength="429" x="42" y="721.4214">CheckParam(param string, rawQuery string, reqBody string) int</text><ellipse cx="33" cy="734.3716" fill="#84BE84" rx="3" ry="3" style="stroke:#038048;stroke-width:1.0;"/><text fill="#000000" font-family="sans-serif" font-size="14" lengthAdjust="spacing" textLength="469" x="42" y="737.7182">ShowMsg(errCode int, errMsg string, errInfo string, idipinfo string) int</text></g><!--class Servicer--><g id="elem_Servicer"><rect codeLine="35" fill="#F1F1F1" height="80.5938" id="Servicer" rx="2.5" ry="2.5" style="stroke:#181818;stroke-width:0.5;" width="778" x="47" y="41"/><ellipse cx="403.75" cy="57" fill="#B4A7E5" rx="11" ry="11" style="stroke:#181818;stroke-width:1.0;"/><path d="M399.6719,52.7656 L399.6719,50.6094 L407.0625,50.6094 L407.0625,52.7656 L404.5938,52.7656 L404.5938,60.8438 L407.0625,60.8438 L407.0625,63 L399.6719,63 L399.6719,60.8438 L402.1406,60.8438 L402.1406,52.7656 L399.6719,52.7656 Z " fill="#000000"/><text fill="#000000" font-family="sans-serif" font-size="14" font-style="italic" lengthAdjust="spacing" textLength="56" x="424.25" y="61.8467">Servicer</text><line style="stroke:#181818;stroke-width:0.5;" x1="48" x2="824" y1="73" y2="73"/><line style="stroke:#181818;stroke-width:0.5;" x1="48" x2="824" y1="81" y2="81"/><ellipse cx="58" cy="94.6484" fill="#84BE84" rx="3" ry="3" style="stroke:#038048;stroke-width:1.0;"/><text fill="#000000" font-family="sans-serif" font-size="14" lengthAdjust="spacing" textLength="752" x="67" y="97.9951">Process(sRequestURI string, sParam string, rawQuery string, reqBody string, sCookie string) (int, string, error)</text><ellipse cx="58" cy="110.9453" fill="#84BE84" rx="3" ry="3" style="stroke:#038048;stroke-width:1.0;"/><text fill="#000000" font-family="sans-serif" font-size="14" lengthAdjust="spacing" textLength="437" x="67" y="114.292">CheckParam(sParam string, rawQuery string, reqBody string) int</text></g><!--reverse link DjcBaseService to DjcRuleService--><g id="link_DjcBaseService_DjcRuleService"><path codeLine="41" d="M421.6647,388.6275 C422.8247,407.5375 423.34,415.81 424.58,436.04 " fill="none" id="DjcBaseService-backto-DjcRuleService" style="stroke:#181818;stroke-width:1.0;"/><polygon fill="#181818" points="420.93,376.65,417.3049,382.8837,421.6647,388.6275,425.2899,382.3938,420.93,376.65" style="stroke:#181818;stroke-width:1.0;"/></g><!--reverse link Servicer to DjcBaseService--><g id="link_Servicer_DjcBaseService"><path codeLine="43" d="M429.8269,139.787 C427.9669,157.097 427.62,160.32 425.36,181.38 " fill="none" id="Servicer-backto-DjcBaseService" style="stroke:#181818;stroke-width:1.0;"/><polygon fill="none" points="431.75,121.89,423.8613,139.146,435.7926,140.428,431.75,121.89" style="stroke:#181818;stroke-width:1.0;"/></g><!--reverse link Servicer to DjcRuleService--><g id="link_Servicer_DjcRuleService"><path codeLine="44" d="M704.5658,126.3316 C766.2958,141.4116 802.79,156.82 822,181.6 C875.01,249.98 866.04,301.79 822,376.27 C808.99,398.27 792.81,418.16 774.51,436.11 " fill="none" id="Servicer-backto-DjcRuleService" style="stroke:#181818;stroke-width:1.0;"/><polygon fill="none" points="687.08,122.06,703.1419,132.1602,705.9897,120.503,687.08,122.06" style="stroke:#181818;stroke-width:1.0;"/></g><!--SRC=[tLNDRjim3BxdAOYSRDVnNi0Bq2PR4M0TkgGx3JjeCkEeiIL5ajS6MzzzyazYsUuXpd6-62J5ZnG_ak8aHoq9HT2eVZEA6lvCm7uq8rh3yfdU4OsRsWPn3Ducl3qK92UASVHXFc_EbzyCKAc5I10ODrtjWqv16-kJTlKhlXNl65uDn5l13L2H2VNnLrRWF2So_b0gvpzgXvy3FoBbQjaB7aNHv2pUm3sQJw_6yw_0lu579Mo5jAVNU2XGc-_hLPDy2FgHA9AVHKLUlXMeZgq23tSYQMMz46BFi95zy6pQuTbgIoEKxuHUx93kgn3Uk4X-LOyAwQtBxBh8BcTM6GYIPrLmmtACrlNViTCoFrIWB6XK8Yl7MB1aI7A7c5dbM5tIytiCfcY-57H_B7l5avsxqsuD1tvBUfMdPYc_vSaIgMtckkXo7BjMhbaAgdChpb5L2alqwKn5U8_eff0FXJQV6MQ9fvymboxX_LofGcAmhBYNr-Skw6p2ZpQHbgjtyj1edfZKuq13a2KUkCZwNeX4VxMB1eBJ5PmuEyAJhCw_QW71joo5eAhO-gm88IrHXZtT7KmrdCkHnD5hfrAE7yeMPxCJBtP5Uix-3BjhC-njIzi-2PEiLGpct8gejkLgRuPSWJFH_y4oUvjCJuzMr7sefX3CPj2nEijkEd4SJxMPGlotx-CYNkZYXla7]--></g></svg>