<?xml version="1.0" encoding="us-ascii" standalone="no"?><svg xmlns="http://www.w3.org/2000/svg" xmlns:xlink="http://www.w3.org/1999/xlink" contentStyleType="text/css" height="789px" preserveAspectRatio="none" style="width:878px;height:789px;background:#FFFFFF;" version="1.1" viewBox="0 0 878 789" width="878px" zoomAndPan="magnify"><defs/><g><!--cluster services--><g id="cluster_services"><path d="M8.5,6 L67.5,6 A3.75,3.75 0 0 1 70,8.5 L77,28.4883 L865.5,28.4883 A2.5,2.5 0 0 1 868,30.9883 L868,780.17 A2.5,2.5 0 0 1 865.5,782.67 L8.5,782.67 A2.5,2.5 0 0 1 6,780.17 L6,8.5 A2.5,2.5 0 0 1 8.5,6 " fill="none" style="stroke:#000000;stroke-width:1.5;"/><line style="stroke:#000000;stroke-width:1.5;" x1="6" x2="77" y1="28.4883" y2="28.4883"/><text fill="#000000" font-family="sans-serif" font-size="14" font-weight="bold" lengthAdjust="spacing" textLength="58" x="10" y="21.5352">services</text></g><!--class DjcBaseService--><g id="elem_DjcBaseService"><rect codeLine="2" fill="#F1F1F1" height="179.9063" id="DjcBaseService" rx="2.5" ry="2.5" style="stroke:#181818;stroke-width:0.5;" width="775" x="30.5" y="181.97"/><ellipse cx="363.75" cy="197.97" fill="#7FFFD4" rx="11" ry="11" style="stroke:#181818;stroke-width:1.0;"/><path d="M363.4834,199.033 Q361.6323,198.3274 360.9766,197.5513 Q360.3208,196.7752 360.3208,195.4637 Q360.3208,193.7786 361.3999,192.8157 Q362.479,191.8528 364.3633,191.8528 Q365.2183,191.8528 366.0732,192.0479 Q366.9282,192.2429 367.7666,192.6248 L367.7666,195.0154 Q366.978,194.4593 366.1646,194.1687 Q365.3511,193.8782 364.5542,193.8782 Q363.666,193.8782 363.1929,194.2351 Q362.7197,194.5921 362.7197,195.2561 Q362.7197,195.7708 363.0642,196.107 Q363.4087,196.4431 364.5044,196.8499 L365.5586,197.2483 Q367.0527,197.7962 367.7583,198.701 Q368.4639,199.6057 368.4639,200.9837 Q368.4639,202.8596 367.3557,203.7852 Q366.2476,204.7107 364.0063,204.7107 Q363.085,204.7107 362.1594,204.4908 Q361.2339,204.2708 360.3706,203.8391 L360.3706,201.3074 Q361.3501,202.0047 362.2673,202.345 Q363.1846,202.6853 364.0811,202.6853 Q364.9858,202.6853 365.4839,202.2744 Q365.9819,201.8636 365.9819,201.1248 Q365.9819,200.5686 365.6499,200.1494 Q365.3179,199.7303 364.687,199.4895 Z " fill="#000000"/><text fill="#000000" font-family="sans-serif" font-size="14" lengthAdjust="spacing" textLength="100" x="384.25" y="203.261">DjcBaseService</text><line style="stroke:#181818;stroke-width:0.5;" x1="31.5" x2="804.5" y1="213.97" y2="213.97"/><rect fill="none" height="6" style="stroke:#C82930;stroke-width:1.0;" width="6" x="38.5" y="224.7141"/><text fill="#000000" font-family="sans-serif" font-size="14" lengthAdjust="spacing" textLength="78" x="50.5" y="231.5052">errCode int</text><rect fill="none" height="6" style="stroke:#C82930;stroke-width:1.0;" width="6" x="38.5" y="241.2024"/><text fill="#000000" font-family="sans-serif" font-size="14" lengthAdjust="spacing" textLength="92" x="50.5" y="247.9934">errMsg string</text><rect fill="none" height="6" style="stroke:#C82930;stroke-width:1.0;" width="6" x="38.5" y="257.6907"/><text fill="#000000" font-family="sans-serif" font-size="14" lengthAdjust="spacing" textLength="91" x="50.5" y="264.4817">errInfo string</text><rect fill="none" height="6" style="stroke:#C82930;stroke-width:1.0;" width="6" x="38.5" y="274.179"/><text fill="#000000" font-family="sans-serif" font-size="14" lengthAdjust="spacing" textLength="22" x="50.5" y="280.97">ext</text><text fill="#0000FF" font-family="sans-serif" font-size="14" lengthAdjust="spacing" textLength="30" x="76.5" y="280.97">map</text><text fill="#000000" font-family="sans-serif" font-size="14" lengthAdjust="spacing" textLength="90" x="106.5" y="280.97">[string]string</text><rect fill="none" height="6" style="stroke:#C82930;stroke-width:1.0;" width="6" x="38.5" y="290.6673"/><text fill="#000000" font-family="sans-serif" font-size="14" lengthAdjust="spacing" textLength="12" x="50.5" y="297.4583">...</text><line style="stroke:#181818;stroke-width:0.5;" x1="31.5" x2="804.5" y1="304.4114" y2="304.4114"/><ellipse cx="41.5" cy="318.1555" fill="#84BE84" rx="3" ry="3" style="stroke:#038048;stroke-width:1.0;"/><text fill="#000000" font-family="sans-serif" font-size="14" lengthAdjust="spacing" textLength="55" x="50.5" y="321.9466">GetExt()</text><text fill="#0000FF" font-family="sans-serif" font-size="14" lengthAdjust="spacing" textLength="30" x="109.5" y="321.9466">map</text><text fill="#000000" font-family="sans-serif" font-size="14" lengthAdjust="spacing" textLength="90" x="139.5" y="321.9466">[string]string</text><ellipse cx="41.5" cy="334.6438" fill="#84BE84" rx="3" ry="3" style="stroke:#038048;stroke-width:1.0;"/><text fill="#000000" font-family="sans-serif" font-size="14" lengthAdjust="spacing" textLength="749" x="50.5" y="338.4348">Process(sRequestURI string, sParam string, rawQuery string, reqBody string, sCookie string) (int, string, error)</text><ellipse cx="41.5" cy="351.1321" fill="#84BE84" rx="3" ry="3" style="stroke:#038048;stroke-width:1.0;"/><text fill="#000000" font-family="sans-serif" font-size="14" lengthAdjust="spacing" textLength="437" x="50.5" y="354.9231">CheckParam(sParam string, rawQuery string, reqBody string) int</text></g><!--class DjcRuleService--><g id="elem_DjcRuleService"><rect codeLine="13" fill="#F1F1F1" height="344.7891" id="DjcRuleService" rx="2.5" ry="2.5" style="stroke:#181818;stroke-width:0.5;" width="829" x="22.5" y="421.88"/><ellipse cx="383.25" cy="437.88" fill="#7FFFD4" rx="11" ry="11" style="stroke:#181818;stroke-width:1.0;"/><path d="M382.9834,438.943 Q381.1323,438.2374 380.4766,437.4613 Q379.8208,436.6852 379.8208,435.3737 Q379.8208,433.6886 380.8999,432.7257 Q381.979,431.7628 383.8633,431.7628 Q384.7183,431.7628 385.5732,431.9579 Q386.4282,432.1529 387.2666,432.5348 L387.2666,434.9254 Q386.478,434.3693 385.6646,434.0787 Q384.8511,433.7882 384.0542,433.7882 Q383.166,433.7882 382.6929,434.1451 Q382.2197,434.5021 382.2197,435.1661 Q382.2197,435.6808 382.5642,436.017 Q382.9087,436.3531 384.0044,436.7599 L385.0586,437.1583 Q386.5527,437.7062 387.2583,438.611 Q387.9639,439.5157 387.9639,440.8937 Q387.9639,442.7696 386.8557,443.6952 Q385.7476,444.6207 383.5063,444.6207 Q382.585,444.6207 381.6594,444.4008 Q380.7339,444.1808 379.8706,443.7491 L379.8706,441.2174 Q380.8501,441.9147 381.7673,442.255 Q382.6846,442.5953 383.5811,442.5953 Q384.4858,442.5953 384.9839,442.1844 Q385.4819,441.7736 385.4819,441.0348 Q385.4819,440.4786 385.1499,440.0594 Q384.8179,439.6403 384.187,439.3995 Z " fill="#000000"/><text fill="#000000" font-family="sans-serif" font-size="14" lengthAdjust="spacing" textLength="99" x="403.75" y="443.171">DjcRuleService</text><line style="stroke:#181818;stroke-width:0.5;" x1="23.5" x2="850.5" y1="453.88" y2="453.88"/><rect fill="none" height="6" style="stroke:#C82930;stroke-width:1.0;" width="6" x="30.5" y="464.6241"/><text fill="#000000" font-family="sans-serif" font-size="14" lengthAdjust="spacing" textLength="62" x="42.5" y="471.4152">appID int</text><rect fill="none" height="6" style="stroke:#C82930;stroke-width:1.0;" width="6" x="30.5" y="481.1124"/><text fill="#000000" font-family="sans-serif" font-size="14" lengthAdjust="spacing" textLength="101" x="42.5" y="487.9034">bizCode string</text><rect fill="none" height="6" style="stroke:#C82930;stroke-width:1.0;" width="6" x="30.5" y="497.6007"/><text fill="#000000" font-family="sans-serif" font-size="14" lengthAdjust="spacing" textLength="66" x="42.5" y="504.3917">uid string</text><rect fill="none" height="6" style="stroke:#C82930;stroke-width:1.0;" width="6" x="30.5" y="514.089"/><text fill="#000000" font-family="sans-serif" font-size="14" lengthAdjust="spacing" textLength="12" x="42.5" y="520.88">...</text><rect fill="none" height="6" style="stroke:#C82930;stroke-width:1.0;" width="6" x="30.5" y="530.5773"/><text fill="#000000" font-family="sans-serif" font-size="14" lengthAdjust="spacing" textLength="150" x="42.5" y="537.3683">rt *djruntime.Runtime</text><rect fill="none" height="6" style="stroke:#C82930;stroke-width:1.0;" width="6" x="30.5" y="547.0655"/><text fill="#000000" font-family="sans-serif" font-size="14" lengthAdjust="spacing" textLength="124" x="42.5" y="553.8566">checker rule.Ruler</text><line style="stroke:#181818;stroke-width:0.5;" x1="23.5" x2="850.5" y1="560.8097" y2="560.8097"/><rect fill="#F24D5C" height="6" style="stroke:#C82930;stroke-width:1.0;" width="6" x="30.5" y="571.5538"/><text fill="#000000" font-family="sans-serif" font-size="14" lengthAdjust="spacing" textLength="101" x="42.5" y="578.3448">ruleCheck() int</text><rect fill="#F24D5C" height="6" style="stroke:#C82930;stroke-width:1.0;" width="6" x="30.5" y="588.0421"/><text fill="#000000" font-family="sans-serif" font-size="14" lengthAdjust="spacing" textLength="304" x="42.5" y="594.8331">getLuckyInfo(param string, cookie string) int</text><rect fill="#F24D5C" height="6" style="stroke:#C82930;stroke-width:1.0;" width="6" x="30.5" y="604.5304"/><text fill="#000000" font-family="sans-serif" font-size="14" lengthAdjust="spacing" textLength="321" x="42.5" y="611.3214">getDcLuckyInfo(param string, cookie string) int</text><rect fill="#F24D5C" height="6" style="stroke:#C82930;stroke-width:1.0;" width="6" x="30.5" y="621.0187"/><text fill="#000000" font-family="sans-serif" font-size="14" lengthAdjust="spacing" textLength="803" x="42.5" y="627.8097">signAndDecodeParam(param string, rawQuery string, reqBody string, reqParam *QueryInnerParam) (string, int, error)</text><rect fill="#F24D5C" height="6" style="stroke:#C82930;stroke-width:1.0;" width="6" x="30.5" y="637.507"/><text fill="#000000" font-family="sans-serif" font-size="14" lengthAdjust="spacing" textLength="270" x="42.5" y="644.298">checkMustField(sTempParam string) int</text><rect fill="#F24D5C" height="6" style="stroke:#C82930;stroke-width:1.0;" width="6" x="30.5" y="653.9952"/><text fill="#000000" font-family="sans-serif" font-size="14" lengthAdjust="spacing" textLength="157" x="42.5" y="660.7862">getRuleObject(mParam</text><text fill="#0000FF" font-family="sans-serif" font-size="14" lengthAdjust="spacing" textLength="30" x="203.5" y="660.7862">map</text><text fill="#000000" font-family="sans-serif" font-size="14" lengthAdjust="spacing" textLength="203" x="233.5" y="660.7862">[string]any) (rule.Ruler, error)</text><rect fill="#F24D5C" height="6" style="stroke:#C82930;stroke-width:1.0;" width="6" x="30.5" y="670.4835"/><text fill="#000000" font-family="sans-serif" font-size="14" lengthAdjust="spacing" textLength="110" x="42.5" y="677.2745">setTips(mParam</text><text fill="#0000FF" font-family="sans-serif" font-size="14" lengthAdjust="spacing" textLength="30" x="156.5" y="677.2745">map</text><text fill="#000000" font-family="sans-serif" font-size="14" lengthAdjust="spacing" textLength="346" x="186.5" y="677.2745">[string]any, pRule rule.Ruler, sGoodsName *string)</text><rect fill="#F24D5C" height="6" style="stroke:#C82930;stroke-width:1.0;" width="6" x="30.5" y="686.9718"/><text fill="#000000" font-family="sans-serif" font-size="14" lengthAdjust="spacing" textLength="400" x="42.5" y="693.7628">handleRule(ruleConfig *InnerRuleConfig, goods string) int</text><text fill="#000000" font-family="sans-serif" font-size="14" lengthAdjust="spacing" textLength="4" x="42.5" y="710.2511">&#160;</text><ellipse cx="33.5" cy="722.9484" fill="#84BE84" rx="3" ry="3" style="stroke:#038048;stroke-width:1.0;"/><text fill="#000000" font-family="sans-serif" font-size="14" lengthAdjust="spacing" textLength="723" x="42.5" y="726.7394">Process(requestURI string, param string, rawQuery string, reqBody string, cookie string) (int, string, error)</text><ellipse cx="33.5" cy="739.4366" fill="#84BE84" rx="3" ry="3" style="stroke:#038048;stroke-width:1.0;"/><text fill="#000000" font-family="sans-serif" font-size="14" lengthAdjust="spacing" textLength="431" x="42.5" y="743.2277">CheckParam(param string, rawQuery string, reqBody string) int</text><ellipse cx="33.5" cy="755.9249" fill="#84BE84" rx="3" ry="3" style="stroke:#038048;stroke-width:1.0;"/><text fill="#000000" font-family="sans-serif" font-size="14" lengthAdjust="spacing" textLength="479" x="42.5" y="759.7159">ShowMsg(errCode int, errMsg string, errInfo string, idipinfo string) int</text></g><!--class Servicer--><g id="elem_Servicer"><rect codeLine="35" fill="#F1F1F1" height="80.9766" id="Servicer" rx="2.5" ry="2.5" style="stroke:#181818;stroke-width:0.5;" width="775" x="53.5" y="41"/><ellipse cx="409.75" cy="57" fill="#B4A7E5" rx="11" ry="11" style="stroke:#181818;stroke-width:1.0;"/><path d="M406.1777,53.2651 L406.1777,51.1069 L413.5571,51.1069 L413.5571,53.2651 L411.0918,53.2651 L411.0918,61.3418 L413.5571,61.3418 L413.5571,63.5 L406.1777,63.5 L406.1777,61.3418 L408.6431,61.3418 L408.6431,53.2651 Z " fill="#000000"/><text fill="#000000" font-family="sans-serif" font-size="14" font-style="italic" lengthAdjust="spacing" textLength="54" x="430.25" y="62.291">Servicer</text><line style="stroke:#181818;stroke-width:0.5;" x1="54.5" x2="827.5" y1="73" y2="73"/><line style="stroke:#181818;stroke-width:0.5;" x1="54.5" x2="827.5" y1="81" y2="81"/><ellipse cx="64.5" cy="94.7441" fill="#84BE84" rx="3" ry="3" style="stroke:#038048;stroke-width:1.0;"/><text fill="#000000" font-family="sans-serif" font-size="14" lengthAdjust="spacing" textLength="749" x="73.5" y="98.5352">Process(sRequestURI string, sParam string, rawQuery string, reqBody string, sCookie string) (int, string, error)</text><ellipse cx="64.5" cy="111.2324" fill="#84BE84" rx="3" ry="3" style="stroke:#038048;stroke-width:1.0;"/><text fill="#000000" font-family="sans-serif" font-size="14" lengthAdjust="spacing" textLength="437" x="73.5" y="115.0234">CheckParam(sParam string, rawQuery string, reqBody string) int</text></g><!--reverse link DjcBaseService to DjcRuleService--><g id="link_DjcBaseService_DjcRuleService"><path codeLine="40" d="M424.0045,374.1387 C425.1145,392.7487 425.59,400.97 426.81,421.44 " fill="none" id="DjcBaseService-backto-DjcRuleService" style="stroke:#181818;stroke-width:1.0;"/><polygon fill="#181818" points="423.29,362.16,419.6543,368.3875,424.0045,374.1387,427.6401,367.9112,423.29,362.16" style="stroke:#181818;stroke-width:1.0;"/></g><!--reverse link Servicer to DjcBaseService--><g id="link_Servicer_DjcBaseService"><path codeLine="42" d="M433.9418,140.3177 C431.8218,157.7077 431.42,160.98 428.88,181.79 " fill="none" id="Servicer-backto-DjcBaseService" style="stroke:#181818;stroke-width:1.0;"/><polygon fill="none" points="436.12,122.45,427.9859,139.5916,439.8977,141.0438,436.12,122.45" style="stroke:#181818;stroke-width:1.0;"/></g><!--reverse link Servicer to DjcRuleService--><g id="link_Servicer_DjcRuleService"><path codeLine="43" d="M706.216,126.7614 C767.626,141.9114 803.93,157.3 823,181.97 C871.9,245.24 862.41,292.31 823,361.88 C810.68,383.64 795.4,403.57 778.11,421.79 " fill="none" id="Servicer-backto-DjcRuleService" style="stroke:#181818;stroke-width:1.0;"/><polygon fill="none" points="688.74,122.45,704.7789,132.5867,707.6532,120.936,688.74,122.45" style="stroke:#181818;stroke-width:1.0;"/></g><!--SRC=[rLNDSjem4Bxp53kSR6BS5w3C9D1ac6dQrAIdJWz2Nep0beGaDw5jtZto3xOC781RVF7i_-hRrITECjIIK0IDwW-ZgE5V3-n7Kw8rJDVqZcYSLpOOZS2R1xVRd6H4COu-ZCUrV_4D0PMQY1Y1STFLFke4jB4nILS_uqjnml1gOBGKt00LgL2V5scEuup8qQT2EVvL1Vm-YWl3iDU8D_20vikhyVmhSjt0an8M3Utf2BSvQlCpcjMD1g2VY29P8ohoyYD7jMiLkBqJSIlhYH0RXhNiWsVn2HghXK4etoazMI7Tb2Myoohv3V1ltI56UNh-48cKi-d121ViRpdO8yXp5iF9ERIICZ28rohdXcKOHjNViTFYkAX0sIR3ebFLSwEjeWJ4ymzwIj1ypUbcL-oG9piuqIxUHt5JUbMaPWc_vV4KgSMY6f2yR1EiN4rqKFhDE4TLAknIx7tAvJXOYXgbnroRUuPfxEbdpAIx72TEMM3vVR56QhoiSZtZ8X2-ixsqipZHYaRppAI-B6a0iiW7RcRz84IilraEWi7-54wT5U5nYeLlsSz4y2LBO5225ZMA098YImU64_TO7L_Z2sT7hxt4yhexNEMPhyIBPK_FeTQWowZ10P7Q3OgPPAt2fONoPqLKouBrQr9Gu330n-U-jrv__vo5tIUi3uFX43fMXnlxFITm3qqVHlyFOzoCPuQuPTu1]--></g></svg>